<svg xmlns="http://www.w3.org/2000/svg" width="40" height="40" viewBox="0 0 40 40" fill="none"><circle cx="20" cy="20" r="20" fill="#DAEDFF"></circle><mask id="mask0" maskUnits="userSpaceOnUse" x="0" y="0" width="40" height="40"><circle cx="20" cy="20" r="20" fill="#DAEDFF"></circle></mask><g mask="url(#mask0)"><path d="M29.7798 29.0472C25.6299 27.8643 22.7 25.7711 19.9984 24.8281C17.2967 25.7711 14.3667 27.8643 10.2175 29.0472C3.63324 30.924 1.98706 22.4784 6.68649 19.5337C10.8234 16.942 10.3312 16.5087 11.4127 12.0639C11.4828 11.7756 11.5598 11.4701 11.6453 11.1458C11.7383 10.7903 11.8417 10.4127 11.9576 10.0102C12.0256 9.77517 12.0961 9.54826 12.1705 9.32995C13.3013 5.99492 16.5383 3.88869 19.9982 4.00455C23.4586 3.8889 26.6958 5.99513 27.8266 9.33016C27.901 9.54868 27.9715 9.77538 28.0395 10.0104C28.1554 10.4129 28.2588 10.7905 28.3518 11.146C28.4373 11.4703 28.5143 11.7758 28.5843 12.0641C29.6659 16.5091 29.1737 16.9424 33.3106 19.5339C38.01 22.4784 36.3641 30.924 29.7798 29.0472Z" fill="#0F3870"></path><path d="M37.0057 38.999L20.7295 41.999L4.49219 38.999C4.49219 38.999 4.92877 35.8933 5.55081 32.7732C6.17285 29.6531 7.45837 28.3475 9.12245 27.7063C9.59198 27.5248 10.4514 27.151 11.443 26.7073C12.0049 26.4554 12.6097 26.1811 13.2101 25.9072C15.3051 24.9518 17.3481 23.9965 17.3481 23.9965L20.7295 23.5905L20.7492 23.5889L20.7681 23.5905L23.8188 23.9568C23.8188 23.9568 25.653 24.7838 27.6575 25.6726C29.5382 26.5062 31.5695 27.3954 32.3746 27.7063C34.0386 28.3475 35.324 29.6531 35.9462 32.7732C36.5687 35.8933 37.0057 38.999 37.0057 38.999Z" fill="#3580FF"></path><path d="M8.05981 32.392C8.02359 32.392 7.98716 32.3747 7.95661 32.3383L7.09545 31.3246C7.02257 31.2391 7.00992 31.0808 7.06686 30.9714C7.12403 30.862 7.22919 30.843 7.30206 30.9285L8.16323 31.9422C8.2361 32.028 8.24876 32.186 8.19181 32.2954C8.15865 32.359 8.10934 32.392 8.05981 32.392Z" fill="#0F3870"></path><path d="M8.05981 37.8341C8.02359 37.8341 7.98716 37.8167 7.95661 37.7807L7.09545 36.767C7.02257 36.6811 7.00992 36.5232 7.06686 36.4138C7.12403 36.3044 7.22919 36.2854 7.30206 36.3709L8.16323 37.3846C8.2361 37.4701 8.24876 37.6284 8.19181 37.7378C8.15865 37.801 8.10934 37.8341 8.05981 37.8341Z" fill="#0F3870"></path><path d="M13.0892 30.3895C13.0593 30.3895 13.0287 30.3773 13.0015 30.3521C12.9227 30.2791 12.8983 30.1241 12.9469 30.0061L13.5214 28.6078C13.57 28.4895 13.6732 28.4528 13.7518 28.5259C13.8305 28.5989 13.855 28.7536 13.8063 28.8719L13.2319 30.2702C13.2002 30.3472 13.1452 30.3895 13.0892 30.3895Z" fill="#0F3870"></path><path d="M10.3294 35.839C10.2995 35.839 10.269 35.8269 10.2417 35.8014C10.1629 35.7283 10.1385 35.5733 10.1871 35.4554L10.7616 34.057C10.8103 33.9387 10.9133 33.902 10.992 33.9751C11.0708 34.0482 11.0952 34.2028 11.0466 34.3211L10.4721 35.7194C10.4405 35.7964 10.3857 35.839 10.3294 35.839Z" fill="#0F3870"></path><path d="M11.5594 28.9768C11.5698 29.0191 11.5727 29.0659 11.5663 29.1134C11.548 29.2497 11.4597 29.3379 11.3691 29.3103L10.2965 28.9853C10.2058 28.9578 10.1473 28.8251 10.1654 28.6891C10.1837 28.5532 10.2721 28.465 10.3626 28.4922L11.4352 28.8172C11.4943 28.8353 11.5397 28.8978 11.5594 28.9768Z" fill="#0F3870"></path><path d="M16.3973 26.4885C16.4077 26.5308 16.4106 26.5776 16.4042 26.6251C16.3859 26.7614 16.2975 26.8496 16.207 26.8221L15.1344 26.497C15.0437 26.4695 14.9852 26.3368 15.0033 26.2009C15.0216 26.0649 15.11 25.9768 15.2005 26.0039L16.2731 26.329C16.3322 26.347 16.3776 26.4096 16.3973 26.4885Z" fill="#0F3870"></path><path d="M15.2551 35.1056C15.2189 35.1056 15.1825 35.0882 15.1519 35.0522L14.2908 34.0385C14.2179 33.9526 14.2052 33.7947 14.2622 33.6853C14.3193 33.5758 14.4245 33.5568 14.4974 33.6423L15.3585 34.6561C15.4314 34.7416 15.4441 34.8998 15.3871 35.0093C15.3542 35.0725 15.3049 35.1056 15.2551 35.1056Z" fill="#0F3870"></path><path d="M12.1731 37.7968C12.1511 37.7758 12.1321 37.7466 12.1181 37.7103C12.0719 37.59 12.0996 37.436 12.1796 37.3669L13.1279 36.5472C13.2079 36.478 13.3105 36.5193 13.3565 36.6396C13.4026 36.7598 13.3751 36.9138 13.295 36.9829L12.3468 37.8027C12.2907 37.8512 12.2239 37.8456 12.1731 37.7968Z" fill="#0F3870"></path><path d="M27.1086 32.392C27.0724 32.392 27.036 32.3747 27.0054 32.3383L26.1443 31.3246C26.0714 31.2391 26.0587 31.0808 26.1157 30.9714C26.1726 30.862 26.278 30.843 26.3509 30.9285L27.2121 31.9422C27.2849 32.028 27.2976 32.186 27.2407 32.2954C27.2077 32.359 27.1584 32.392 27.1086 32.392Z" fill="#0F3870"></path><path d="M27.1106 37.8341C27.0744 37.8341 27.0382 37.8167 27.0074 37.7807L26.1462 36.767C26.0734 36.6811 26.0607 36.5232 26.1176 36.4138C26.1746 36.3044 26.28 36.2854 26.3528 36.3709L27.214 37.3846C27.2869 37.4701 27.2996 37.6284 27.2426 37.7378C27.2097 37.801 27.1603 37.8341 27.1106 37.8341Z" fill="#0F3870"></path><path d="M32.1399 30.3895C32.11 30.3895 32.0795 30.3773 32.0522 30.3521C31.9735 30.2791 31.949 30.1241 31.9977 30.0061L32.5722 28.6078C32.6208 28.4895 32.724 28.4528 32.8025 28.5259C32.8813 28.5989 32.9057 28.7536 32.8571 28.8719L32.2826 30.2702C32.251 30.3472 32.1962 30.3895 32.1399 30.3895Z" fill="#0F3870"></path><path d="M29.3821 35.839C29.3522 35.839 29.3217 35.8269 29.2944 35.8014C29.2157 35.7283 29.1912 35.5733 29.2399 35.4554L29.8144 34.057C29.863 33.9387 29.9662 33.902 30.0448 33.9751C30.1235 34.0482 30.148 34.2028 30.0993 34.3211L29.5248 35.7194C29.4932 35.7964 29.4384 35.839 29.3821 35.839Z" fill="#0F3870"></path><path d="M35.2532 38.1232C35.2233 38.1232 35.1928 38.1111 35.1655 38.0855C35.0868 38.0125 35.0623 37.8578 35.111 37.7395L35.6854 36.3412C35.7341 36.2229 35.8373 36.1862 35.9159 36.2593C35.9946 36.3323 36.0191 36.487 35.9704 36.6053L35.3959 38.0036C35.3643 38.0806 35.3093 38.1232 35.2532 38.1232Z" fill="#0F3870"></path><path d="M30.6101 28.9778C30.6206 29.02 30.6235 29.0669 30.6171 29.1144C30.5988 29.2507 30.5104 29.3388 30.4199 29.3113L29.3473 28.9863C29.2565 28.9588 29.1981 28.8261 29.2162 28.6901C29.2345 28.5541 29.3229 28.466 29.4134 28.4932L30.486 28.8182C30.5453 28.8362 30.5907 28.8988 30.6101 28.9778Z" fill="#0F3870"></path><path d="M22.3973 29.4895C22.4077 29.5318 22.4106 29.5786 22.4042 29.6261C22.3859 29.7624 22.2975 29.8506 22.207 29.823L21.1344 29.498C21.0437 29.4705 20.9852 29.3378 21.0033 29.2018C21.0216 29.0659 21.11 28.9777 21.2005 29.0049L22.2731 29.3299C22.3325 29.348 22.3778 29.4105 22.3973 29.4895Z" fill="#0F3870"></path><path d="M34.3079 34.0558C34.2716 34.0558 34.2352 34.0384 34.2047 34.0024L33.3435 32.9887C33.2706 32.9031 33.258 32.7449 33.3149 32.6355C33.3721 32.526 33.4772 32.507 33.5501 32.5925L34.4113 33.6063C34.4842 33.6921 34.4968 33.85 34.4399 33.9595C34.4067 34.0227 34.3576 34.0558 34.3079 34.0558Z" fill="#0F3870"></path><path d="M26.4509 27.944C26.4268 27.971 26.3895 27.9866 26.3423 27.9853L25.0126 27.9512C24.9003 27.9485 24.7739 27.8524 24.7304 27.737C24.6869 27.6214 24.7429 27.5303 24.8552 27.5331L26.1849 27.5672C26.2975 27.5702 26.4236 27.666 26.4672 27.7814C26.4922 27.8483 26.4841 27.907 26.4509 27.944Z" fill="#0F3870"></path><path d="M31.2258 37.7968C31.2038 37.7758 31.1848 37.7466 31.1708 37.7103C31.1246 37.59 31.1523 37.436 31.2324 37.3669L32.1806 36.5472C32.2607 36.478 32.3632 36.5193 32.4092 36.6396C32.4555 36.7598 32.4278 36.9138 32.3477 36.9829L31.3995 37.8027C31.3436 37.8512 31.2769 37.8456 31.2258 37.7968Z" fill="#0F3870"></path><path d="M20.7337 33.3348C20.7038 33.3348 20.6733 33.3227 20.646 33.2974C20.5672 33.2244 20.5428 33.0694 20.5914 32.9515L21.1659 31.5531C21.2146 31.4348 21.3178 31.3981 21.3963 31.4712C21.4751 31.5442 21.4995 31.6992 21.4509 31.8172L20.8764 33.2155C20.8447 33.2922 20.79 33.3348 20.7337 33.3348Z" fill="#0F3870"></path><path d="M18.1673 29.9012C18.1374 29.9012 18.1068 29.8891 18.0796 29.8639C18.0008 29.7908 17.9764 29.6358 18.025 29.5179L18.5995 28.1195C18.6482 28.0012 18.7514 27.9645 18.8299 28.0376C18.9087 28.1107 18.9331 28.2656 18.8845 28.3836L18.31 29.7819C18.2783 29.8586 18.2236 29.9012 18.1673 29.9012Z" fill="#0F3870"></path><path d="M18.0735 37.7208C18.0436 37.7208 18.0131 37.7087 17.9858 37.6832C17.9071 37.6101 17.8826 37.4551 17.9313 37.3372L18.5058 35.9388C18.5544 35.8206 18.6576 35.7839 18.7362 35.8569C18.8149 35.93 18.8394 36.085 18.7907 36.2029L18.2162 37.6013C18.1846 37.6783 18.1298 37.7208 18.0735 37.7208Z" fill="#0F3870"></path><path d="M18.284 32.4514C18.2945 32.4937 18.2973 32.5405 18.291 32.5881C18.2727 32.7244 18.1843 32.8125 18.0938 32.785L17.0212 32.4599C16.9304 32.4324 16.8717 32.2997 16.8901 32.1638C16.9084 32.0278 16.9968 31.9396 17.0873 31.9668L18.1599 32.2919C18.219 32.3096 18.2646 32.3721 18.284 32.4514Z" fill="#0F3870"></path><path d="M24.5715 33.9024C24.5353 33.9024 24.4989 33.8851 24.4683 33.8487L23.6072 32.8353C23.5343 32.7498 23.5216 32.5916 23.5786 32.4821C23.6357 32.3727 23.7409 32.3537 23.8138 32.4392L24.675 33.4529C24.7478 33.5384 24.7605 33.6967 24.7035 33.8061C24.6704 33.8694 24.6213 33.9024 24.5715 33.9024Z" fill="#0F3870"></path><path d="M21.3037 37.8995C21.2817 37.8785 21.2627 37.8494 21.249 37.813C21.2027 37.6927 21.2304 37.5387 21.3105 37.4696L22.2587 36.6499C22.3388 36.5804 22.4413 36.622 22.4874 36.7423C22.5336 36.8625 22.5059 37.0165 22.4258 37.0856L21.4776 37.9054C21.4216 37.9539 21.3548 37.9483 21.3037 37.8995Z" fill="#0F3870"></path><path d="M20.7651 23.585V23.5877L20.7461 23.5866L20.7651 23.585Z" fill="#5D46C2"></path><path d="M20.7462 23.5866L20.7266 23.5877V23.585L20.7462 23.5866Z" fill="#5D46C2"></path><path d="M23.7625 24.6146C23.7625 24.6146 22.921 26.127 20.5681 26.127C18.2951 26.127 17.3379 24.5393 17.3379 24.5393L17.4769 23.4515L17.5002 23.2686L17.7186 21.5557L23.3423 21.7063L23.4361 22.3579L23.4671 22.5712L23.7625 24.6146Z" fill="#6589C7"></path><path opacity="0.4" d="M23.436 22.3589C22.1618 23.396 20.1009 23.7905 17.4766 23.4525L17.4999 23.2696L17.7183 21.5566L23.342 21.7073L23.436 22.3589Z" fill="#BCDCFF"></path><path d="M15.6097 17.0981C14.3519 18.7843 11.6428 17.645 11.8273 15.4067C11.9949 13.3763 14.3561 13.6984 14.3561 13.6984L15.6097 17.0981Z" fill="#6589C7"></path><path d="M13.5237 18.7178C13.9553 18.7178 14.3052 18.3818 14.3052 17.9673C14.3052 17.5528 13.9553 17.2168 13.5237 17.2168C13.0921 17.2168 12.7422 17.5528 12.7422 17.9673C12.7422 18.3818 13.0921 18.7178 13.5237 18.7178Z" fill="#3580FF"></path><path d="M24.9238 17.0981C26.1816 18.7843 28.8908 17.645 28.7062 15.4067C28.5387 13.3763 26.1775 13.6984 26.1775 13.6984L24.9238 17.0981Z" fill="#6589C7"></path><path d="M27.0803 18.7178C27.512 18.7178 27.8619 18.3818 27.8619 17.9673C27.8619 17.5528 27.512 17.2168 27.0803 17.2168C26.6487 17.2168 26.2988 17.5528 26.2988 17.9673C26.2988 18.3818 26.6487 18.7178 27.0803 18.7178Z" fill="#3580FF"></path><path d="M13.8529 11.2338C13.8529 11.2338 13.2385 14.8923 14.8308 18.4706C16.2741 21.7137 18.1941 22.7246 20.2369 22.7554C22.5605 22.7904 27.4258 21.5 26.6558 10.9133C26.1357 3.75966 14.468 4.01212 13.8529 11.2338Z" fill="#6589C7"></path><path d="M13.5215 12.8489C13.5215 12.8489 13.6432 15.115 14.6224 15.0298C15.6016 14.9445 15.126 9.83991 15.126 9.83991C15.126 9.83991 15.9983 11.0758 17.5906 10.9415C19.1829 10.8072 17.7387 8.81916 17.7387 8.81916C17.7387 8.81916 19.2082 10.7804 20.5524 10.6997C21.8966 10.6191 20.5524 8.20109 20.5524 8.20109C20.5524 8.20109 22.3083 10.9415 23.5714 10.8609C24.8344 10.7802 23.7647 8.49651 23.7647 8.49651C23.7647 8.49651 24.7701 11.0224 25.7299 11.2101C25.7299 11.2101 25.4883 14.9309 26.5149 14.7744C27.5412 14.6179 27.1616 10.4578 26.7394 9.19503C26.3174 7.93229 24.0562 4.76194 19.703 5.16504C15.3499 5.56793 13.5992 7.87844 13.5215 12.8489Z" fill="#0F3870"></path><path d="M16.0215 13.0867C16.0215 13.0867 16.9119 11.8975 18.4457 11.7435C18.6951 11.7184 18.9148 11.9021 18.9299 12.1424L18.9301 12.1464C18.9454 12.3897 18.7455 12.5948 18.4917 12.5981C17.9155 12.6057 16.9043 12.6844 16.0215 13.0867Z" fill="#0F3870"></path><path d="M24.6301 13.0867C24.6301 13.0867 23.7397 11.8975 22.2059 11.7435C21.9565 11.7184 21.7368 11.9021 21.7217 12.1424L21.7215 12.1464C21.7063 12.3897 21.9061 12.5948 22.1599 12.5981C22.7361 12.6057 23.7473 12.6844 24.6301 13.0867Z" fill="#0F3870"></path><path d="M21.0223 17.4276C21.0186 17.4276 21.0149 17.4274 21.0109 17.4272L19.9881 17.348C19.9111 17.3419 19.8537 17.2771 19.8598 17.2032C19.8659 17.1292 19.9336 17.0752 20.0106 17.08L20.8661 17.1462L20.5992 14.649C20.5914 14.5753 20.6472 14.5093 20.724 14.5017C20.8013 14.494 20.8696 14.5478 20.8774 14.6218L21.1615 17.2794C21.1659 17.319 21.1515 17.3586 21.1224 17.3871C21.0958 17.4131 21.0598 17.4276 21.0223 17.4276Z" fill="#0F3870"></path><path d="M18.334 18.4996C19.592 18.6879 20.8743 18.7696 22.5874 18.4424C22.5874 18.4424 22.4391 20.2012 20.4041 20.2092C18.6735 20.2157 18.334 18.4996 18.334 18.4996Z" fill="white"></path><path d="M17.7385 15.4809C18.0105 15.4809 18.231 15.1033 18.231 14.6374C18.231 14.1716 18.0105 13.7939 17.7385 13.7939C17.4666 13.7939 17.2461 14.1716 17.2461 14.6374C17.2461 15.1033 17.4666 15.4809 17.7385 15.4809Z" fill="#0F3870"></path><path d="M22.9768 15.4809C23.2488 15.4809 23.4692 15.1033 23.4692 14.6374C23.4692 14.1716 23.2488 13.7939 22.9768 13.7939C22.7048 13.7939 22.4844 14.1716 22.4844 14.6374C22.4844 15.1033 22.7048 15.4809 22.9768 15.4809Z" fill="#0F3870"></path><path d="M17.5412 17.3971C16.1808 17.3971 15.0742 16.3345 15.0742 15.0281C15.0742 13.7218 16.1808 12.6592 17.5412 12.6592C18.9016 12.6592 20.0082 13.7218 20.0082 15.0281C20.008 16.3345 18.9013 17.3971 17.5412 17.3971ZM17.5412 12.8741C16.3043 12.8741 15.2981 13.8404 15.2981 15.0281C15.2981 16.2159 16.3043 17.1821 17.5412 17.1821C18.7781 17.1821 19.7843 16.2159 19.7843 15.0281C19.7843 13.8404 18.7781 12.8741 17.5412 12.8741Z" fill="#F6A134"></path><path d="M23.4807 17.3971C22.1203 17.3971 21.0137 16.3345 21.0137 15.0281C21.0137 13.7218 22.1203 12.6592 23.4807 12.6592C24.841 12.6592 25.9476 13.7218 25.9476 15.0281C25.9476 16.3345 24.841 17.3971 23.4807 17.3971ZM23.4807 12.8741C22.2438 12.8741 21.2375 13.8404 21.2375 15.0281C21.2375 16.2159 22.2438 17.1821 23.4807 17.1821C24.7175 17.1821 25.7238 16.2159 25.7238 15.0281C25.7238 13.8404 24.7175 12.8741 23.4807 12.8741Z" fill="#F6A134"></path><path d="M25.6958 14.3685C25.669 14.3685 25.6419 14.3592 25.6205 14.3406C25.5749 14.3006 25.5715 14.2327 25.6131 14.1887C25.6437 14.1564 26.3731 13.402 27.4653 13.5744C27.5264 13.584 27.5676 13.6394 27.5576 13.6978C27.5475 13.7565 27.4899 13.7959 27.4291 13.7864C26.4551 13.6327 25.7855 14.3263 25.7787 14.3333C25.7567 14.3565 25.7264 14.3685 25.6958 14.3685Z" fill="#F6A134"></path><path d="M15.3425 14.3237C15.3133 14.3237 15.2842 14.3128 15.2622 14.291C15.2495 14.2787 14.3687 13.4316 13.2802 13.7815C13.2218 13.8003 13.1583 13.77 13.1386 13.7136C13.119 13.6572 13.1506 13.5965 13.2093 13.5776C14.4357 13.1833 15.3833 14.102 15.423 14.1412C15.466 14.1837 15.4651 14.2518 15.4206 14.2931C15.3988 14.3136 15.3706 14.3237 15.3425 14.3237Z" fill="#F6A134"></path><path d="M19.8973 14.8071C19.8949 14.8071 19.8925 14.8071 19.8899 14.8069C19.8281 14.8032 19.7815 14.752 19.7854 14.6928C19.798 14.5044 19.966 14.1484 20.5115 14.1484C21.0567 14.1484 21.225 14.5044 21.2378 14.6928C21.242 14.752 21.1951 14.8032 21.1335 14.8069C21.0714 14.8107 21.0186 14.7659 21.0146 14.7066C21.0116 14.6722 20.9716 14.3632 20.5117 14.3632C20.0376 14.3632 20.0099 14.6925 20.009 14.7066C20.0051 14.7636 19.9558 14.8071 19.8973 14.8071Z" fill="#F6A134"></path></g></svg>