<svg xmlns="http://www.w3.org/2000/svg" width="40" height="40" viewBox="0 0 40 40" fill="none"><circle cx="20" cy="20" r="20" fill="#DAEDFF"></circle><mask id="mask0" maskUnits="userSpaceOnUse" x="0" y="0" width="40" height="40"><circle cx="20" cy="20" r="20" fill="#DAEDFF"></circle></mask><g mask="url(#mask0)"><path d="M36.0014 38.6645L19.3046 43.5072L2.56836 38.6645C2.56836 38.6645 3.01706 36.5379 3.65692 34.4013C4.29677 32.2648 5.61843 31.3708 7.32957 30.9317C9.04025 30.4922 15.7879 28.3914 15.7879 28.3914L19.2649 28.1134L19.2851 28.1123L19.3046 28.1134L22.4417 28.3643C22.4417 28.3643 29.5288 30.492 31.2395 30.9317C32.9506 31.3708 34.2723 32.2648 34.9121 34.4013C35.552 36.5379 36.0014 38.6645 36.0014 38.6645Z" fill="#3580FF"></path><path d="M19.0836 33.4739C19.3013 33.4739 19.4778 33.2974 19.4778 33.0797C19.4778 32.862 19.3013 32.6855 19.0836 32.6855C18.8659 32.6855 18.6895 32.862 18.6895 33.0797C18.6895 33.2974 18.8659 33.4739 19.0836 33.4739Z" fill="white"></path><path d="M19.0817 35.5638C19.2994 35.5638 19.4759 35.3873 19.4759 35.1696C19.4759 34.9519 19.2994 34.7754 19.0817 34.7754C18.864 34.7754 18.6875 34.9519 18.6875 35.1696C18.6875 35.3873 18.864 35.5638 19.0817 35.5638Z" fill="white"></path><path d="M19.0817 37.6595C19.2994 37.6595 19.4759 37.483 19.4759 37.2653C19.4759 37.0476 19.2994 36.8711 19.0817 36.8711C18.864 36.8711 18.6875 37.0476 18.6875 37.2653C18.6875 37.483 18.864 37.6595 19.0817 37.6595Z" fill="white"></path><path d="M19.3067 28.1074V28.1101L19.2871 28.109L19.3067 28.1074Z" fill="#0F3870"></path><path d="M19.2857 28.108L19.2656 28.1091V28.1064L19.2857 28.108Z" fill="#0F3870"></path><path d="M22.3875 29.2101C22.3875 29.2101 21.5222 30.8297 19.1028 30.8297C16.7655 30.8297 15.7812 29.1296 15.7812 29.1296L15.9242 27.9647L15.9482 27.7689L16.1727 25.9346L21.9554 26.0959L22.0519 26.7936L22.0838 27.022L22.3875 29.2101Z" fill="white"></path><path d="M15.9464 27.7676C15.9464 27.7676 13.8853 28.1151 12.3633 29.4386C12.3633 29.4386 12.8086 32.0426 15.7793 34.6193L19.1008 30.8284C19.101 30.8284 16.8799 29.9851 15.9464 27.7676Z" fill="#BCDCFF"></path><path d="M22.172 27.7715C22.172 27.7715 24.2331 28.119 25.7551 29.4425C25.7551 29.4425 25.3098 32.0465 22.3391 34.6232L19.0176 30.8323C19.0176 30.8323 21.2387 29.989 22.172 27.7715Z" fill="#BCDCFF"></path><path d="M22.0498 26.7946C20.7396 27.9051 18.6204 28.3276 15.9219 27.9657L15.9459 27.7699L16.1705 25.9355L21.9531 26.0969L22.0498 26.7946Z" fill="#BCDCFF"></path><path d="M14.0002 21.1625C12.7068 22.9681 9.92099 21.7481 10.1108 19.3513C10.2831 17.1771 12.711 17.522 12.711 17.522L14.0002 21.1625Z" fill="#6589C7"></path><path d="M23.5801 21.1625C24.8735 22.9681 27.6593 21.7481 27.4695 19.3513C27.2972 17.1771 24.8692 17.522 24.8692 17.522L23.5801 21.1625Z" fill="#6589C7"></path><path d="M12.196 14.883C12.196 14.883 11.5642 18.8006 13.2018 22.6324C14.6859 26.1051 16.6602 27.1876 18.7608 27.2206C21.1501 27.2581 26.153 25.8763 25.3612 14.5397C24.8262 6.87946 12.8285 7.1498 12.196 14.883Z" fill="#6589C7"></path><path d="M25.6442 17.6958C25.6442 17.6958 25.758 20.5328 24.9171 24.084C23.5688 29.7768 18.9422 29.0182 18.9422 29.0182C18.9422 29.0182 14.4057 29.7768 13.0574 24.084C12.2165 20.5328 11.8535 17.8829 11.8535 17.8829L12.9163 16.4756C12.9163 16.4756 13.4339 21.3802 15.3112 22.2298C15.3112 22.2298 16.1456 20.9608 18.9422 22.1468C21.7387 20.9608 22.663 22.2298 22.663 22.2298C24.5404 21.3802 24.6995 16.6602 24.6995 16.6602L25.6442 17.6958Z" fill="#0F3870"></path><path d="M13.6121 12.5097C13.6121 12.5097 14.059 15.4501 12.8104 16.5252V18.9518L12.077 19.1717C12.077 19.1717 11.4379 15.9284 11.1933 14.1226C10.7193 10.6252 14.0011 10.1816 14.0011 10.1816L13.6121 12.5097Z" fill="#0F3870"></path><path d="M23.8968 12.5097C23.8968 12.5097 23.4499 15.4501 24.6985 16.5252V18.9518L25.4319 19.1717C25.4319 19.1717 26.071 15.9284 26.3156 14.1226C26.7894 10.6252 23.5078 10.1816 23.5078 10.1816L23.8968 12.5097Z" fill="#0F3870"></path><path d="M11.6517 12.3163C11.6517 12.3163 9.45525 8.43675 14.6587 7.01683C18.2871 6.02653 23.198 7.06932 24.768 4.49219C24.768 4.49219 25.2073 6.25403 24.3395 7.38499C24.3395 7.38499 26.7062 6.67491 27.3637 5.28123C27.3637 5.28123 28.179 7.46396 26.9166 9.14683C26.9166 9.14683 27.8896 9.46249 28.7574 8.77867C28.7574 8.77867 28.6773 13.5381 25.1534 13.2751C25.1534 13.2751 24.4088 12.7107 23.1201 12.3163C21.8317 11.9218 20.7859 13.9067 17.4321 13.0651C14.4428 12.3151 13.2116 11.8411 11.6517 12.3163Z" fill="#0F3870"></path><path d="M19.0579 25.3088C18.5656 25.3088 18.1771 25.1369 18.151 25.1253C18.0786 25.0925 18.0465 25.0073 18.0792 24.935C18.112 24.8626 18.197 24.8307 18.2695 24.8632C18.2818 24.8688 19.1678 25.2556 19.8781 24.7883C19.9445 24.7448 20.0336 24.763 20.0773 24.8294C20.1211 24.8958 20.1027 24.9848 20.0363 25.0286C19.7116 25.2419 19.3646 25.3088 19.0579 25.3088Z" fill="#0F3870"></path><path d="M19.1956 21.1334C19.1918 21.1334 19.188 21.1332 19.1841 21.133L18.1324 21.0482C18.0532 21.0419 17.9942 20.9723 18.0005 20.8934C18.007 20.8142 18.0763 20.7547 18.1553 20.7615L19.0349 20.8323L18.7606 18.1585C18.7525 18.0795 18.8099 18.0089 18.8889 18.0008C18.9681 17.9925 19.0385 18.0502 19.0466 18.1291L19.3387 20.975C19.3432 21.0174 19.3284 21.0598 19.2983 21.0904C19.2714 21.1179 19.2342 21.1334 19.1956 21.1334Z" fill="#0F3870" stroke="#0F3870" stroke-width="0.3"></path><path d="M16.8008 22.8249C18.0944 23.0266 19.4129 23.1141 21.1745 22.7637C21.1745 22.7637 21.022 24.6471 18.9294 24.6556C17.1499 24.6626 16.8008 22.8249 16.8008 22.8249Z" fill="white"></path><path d="M16.19 19.4276C16.4696 19.4276 16.6963 19.0232 16.6963 18.5243C16.6963 18.0255 16.4696 17.6211 16.19 17.6211C15.9103 17.6211 15.6836 18.0255 15.6836 18.5243C15.6836 19.0232 15.9103 19.4276 16.19 19.4276Z" fill="#0F3870"></path><path d="M21.5767 19.4276C21.8563 19.4276 22.083 19.0232 22.083 18.5243C22.083 18.0255 21.8563 17.6211 21.5767 17.6211C21.297 17.6211 21.0703 18.0255 21.0703 18.5243C21.0703 19.0232 21.297 19.4276 21.5767 19.4276Z" fill="#0F3870"></path><path d="M15.2917 16.5542C15.6473 16.3633 16.1665 16.1273 16.6713 16.0537C16.9425 16.0142 17.1128 15.7414 17.0206 15.4834L17.002 15.4313C16.9351 15.2449 16.75 15.128 16.5533 15.1489C16.1028 15.1967 15.3048 15.3544 14.7843 15.8733C14.6714 15.9857 14.6324 16.1526 14.6802 16.3045C14.7607 16.561 15.0546 16.6817 15.2917 16.5542Z" fill="#0F3870"></path><path d="M22.4941 16.5542C22.1385 16.3633 21.6194 16.1273 21.1148 16.0537C20.8436 16.0142 20.6733 15.7414 20.7655 15.4834L20.7841 15.4313C20.851 15.2449 21.0361 15.128 21.2328 15.1489C21.6833 15.1967 22.4813 15.3544 23.0018 15.8733C23.1147 15.9857 23.1537 16.1526 23.1059 16.3045C23.0252 16.561 22.731 16.6817 22.4941 16.5542Z" fill="#0F3870"></path></g></svg>