<svg xmlns="http://www.w3.org/2000/svg" viewBox="0 0 141.38 32"><defs><style>.cls-1{font-size:16.52px;font-family:ErasITC-Bold, Eras Bold ITC;font-weight:700;}.cls-1,.cls-2{fill:#228ccc;}</style></defs><g id="Layer_2" data-name="Layer 2"><g id="Layer_1-2" data-name="Layer 1"><text class="cls-1" transform="translate(44.11 13.77)">Accounting</text><text class="cls-1" transform="translate(42.63 27.87)">Birdie</text><path class="cls-2" d="M19.08,2.64h.55c3.47,0,7,0,10.42,0a15,15,0,0,1,3.47.45,6.58,6.58,0,0,1,5.13,7.28A5,5,0,0,1,36,14.51l-.52.28.29.16c4.19,1.75,4.68,7.62,1.86,10.3a5.72,5.72,0,0,1-8.81-1.39c-.06-.11-.1-.24-.17-.38a23.55,23.55,0,0,0,2.56-.18,6.68,6.68,0,0,0,2.19-.74,2.5,2.5,0,0,0,.52-4A5.29,5.29,0,0,0,30.13,17c-.7,0-1.4,0-2.09-.08a4.19,4.19,0,0,1-3.37-2.34c-.3-.55-.52-1.13-.82-1.79h.63c1.85,0,3.71,0,5.56,0a8,8,0,0,0,1.62-.17,2.58,2.58,0,0,0,2.25-2.07A3,3,0,0,0,32.4,7.56,4.75,4.75,0,0,0,30,7c-2,0-4,0-6,0a4.08,4.08,0,0,1-3.74-2.25C19.86,4.05,19.49,3.39,19.08,2.64Z"/><path class="cls-2" d="M0,27.83C3.41,20.24,6.79,12.7,10.18,5.14c.86,1.27,1.37,4.54,1.19,6.8a20.07,20.07,0,0,1-2.12,6.67l.59,0h4.65a2.3,2.3,0,0,1,2.24,1.23,2.22,2.22,0,0,1-2,3.24c-1.12,0-2.26,0-3.36.1a7.8,7.8,0,0,0-6,4.23.69.69,0,0,1-.71.42c-1.38,0-2.76,0-4.14,0Z"/><path class="cls-2" d="M11.57,2.69c2-.17,3.94-.09,5.37,1.56a5.39,5.39,0,0,1,.86,1.31q4.95,11,9.86,21.93a2.47,2.47,0,0,1,.1.29c-2.76.32-5.24-.06-6.62-3.25-3.08-7.1-6.22-14.18-9.33-21.27C11.73,3.09,11.67,2.92,11.57,2.69Z"/></g></g></svg>