<svg id="svg" xmlns="http://www.w3.org/2000/svg" xmlns:xlink="http://www.w3.org/1999/xlink" width="400" height="404.63645943098" viewBox="0, 0, 400,404.63645943098"><g id="svgg"><path id="path0" d="M0.007 5.602 C 0.020 9.510,0.119 11.725,0.333 12.926 C 0.503 13.872,0.679 14.979,0.726 15.385 C 0.773 15.790,0.916 16.786,1.043 17.597 C 1.171 18.409,1.318 19.405,1.370 19.810 C 1.421 20.216,1.709 22.160,2.009 24.131 C 2.308 26.101,2.598 28.045,2.653 28.451 C 2.708 28.857,2.848 29.758,2.966 30.453 C 3.083 31.149,3.215 32.002,3.259 32.350 C 3.371 33.236,3.605 34.762,3.905 36.565 C 3.924 36.681,3.954 36.942,3.972 37.144 C 4.002 37.491,4.788 37.513,17.256 37.513 C 28.777 37.513,30.541 37.554,30.769 37.829 C 30.914 38.003,30.961 38.145,30.875 38.145 C 30.788 38.145,30.836 38.288,30.980 38.462 C 31.124 38.635,31.172 38.778,31.085 38.778 C 30.999 38.778,31.046 38.920,31.191 39.094 C 31.335 39.268,31.382 39.410,31.296 39.410 C 31.210 39.410,31.257 39.552,31.401 39.726 C 31.546 39.900,31.593 40.042,31.507 40.042 C 31.421 40.042,31.468 40.184,31.612 40.358 C 31.757 40.532,31.804 40.674,31.718 40.674 C 31.631 40.674,31.679 40.817,31.823 40.991 C 31.967 41.164,32.015 41.307,31.928 41.307 C 31.842 41.307,31.870 41.425,31.990 41.570 C 32.110 41.715,32.217 41.905,32.227 41.992 C 32.236 42.079,32.252 42.173,32.261 42.202 C 32.269 42.231,32.308 42.418,32.346 42.618 C 32.515 43.495,36.329 54.696,36.479 54.755 C 36.571 54.792,36.594 54.958,36.530 55.124 C 36.467 55.291,36.516 55.427,36.641 55.427 C 36.766 55.427,36.813 55.569,36.746 55.743 C 36.680 55.917,36.727 56.059,36.852 56.059 C 36.976 56.059,37.024 56.201,36.957 56.375 C 36.890 56.549,36.938 56.691,37.063 56.691 C 37.187 56.691,37.235 56.834,37.168 57.007 C 37.101 57.181,37.152 57.323,37.280 57.323 C 37.408 57.323,37.502 57.395,37.488 57.482 C 37.474 57.568,37.486 57.711,37.515 57.798 C 37.543 57.885,37.590 58.051,37.619 58.166 C 37.648 58.282,37.690 58.401,37.714 58.430 C 37.737 58.459,37.788 58.646,37.826 58.845 C 37.864 59.044,38.275 60.372,38.740 61.795 C 39.204 63.219,39.824 65.427,40.117 66.702 C 41.574 73.028,42.225 75.876,42.480 77.028 C 42.633 77.724,43.004 79.336,43.303 80.611 C 43.602 81.886,43.941 83.404,44.056 83.983 C 44.171 84.563,44.448 85.748,44.670 86.617 C 44.893 87.487,45.328 89.384,45.637 90.832 C 45.947 92.281,46.258 93.562,46.329 93.678 C 46.401 93.793,46.466 93.983,46.475 94.099 C 46.526 94.772,47.863 100.802,48.016 101.054 C 48.087 101.170,48.152 101.359,48.161 101.475 C 48.211 102.132,49.547 108.174,49.698 108.426 C 49.766 108.540,49.840 108.777,49.863 108.953 C 49.885 109.129,50.005 109.747,50.129 110.327 C 50.254 110.906,50.403 111.617,50.462 111.907 C 50.839 113.772,51.277 115.626,51.383 115.802 C 51.452 115.916,51.526 116.153,51.549 116.329 C 51.571 116.505,51.691 117.123,51.815 117.703 C 51.940 118.282,52.089 118.994,52.148 119.283 C 52.525 121.148,52.963 123.002,53.069 123.179 C 53.138 123.292,53.212 123.530,53.235 123.705 C 53.257 123.881,53.377 124.499,53.501 125.079 C 53.626 125.659,53.775 126.370,53.834 126.660 C 54.211 128.525,54.649 130.378,54.755 130.555 C 54.824 130.669,54.898 130.906,54.921 131.082 C 54.943 131.258,55.063 131.876,55.187 132.455 C 55.312 133.035,55.461 133.746,55.520 134.036 C 55.893 135.883,56.335 137.753,56.438 137.926 C 56.505 138.037,56.582 138.321,56.609 138.558 C 56.636 138.795,56.769 139.463,56.904 140.042 C 57.039 140.622,57.192 141.333,57.244 141.623 C 57.297 141.913,57.564 143.098,57.838 144.257 C 58.458 146.879,58.878 148.650,58.911 148.788 C 58.925 148.846,59.011 149.273,59.101 149.737 C 59.192 150.200,59.437 151.291,59.646 152.160 C 59.855 153.030,60.228 154.642,60.474 155.743 C 60.721 156.844,61.100 158.504,61.318 159.431 C 61.535 160.358,61.921 162.065,62.176 163.224 C 62.430 164.384,62.780 165.854,62.954 166.491 C 63.127 167.129,63.308 167.887,63.355 168.177 C 63.521 169.203,64.321 172.722,64.602 173.661 C 64.759 174.185,64.941 174.944,65.006 175.347 C 65.202 176.559,65.983 180.017,66.298 181.067 C 66.460 181.607,66.646 182.413,66.710 182.858 C 66.775 183.303,66.879 183.809,66.942 183.983 C 67.004 184.157,67.096 184.536,67.146 184.826 C 67.319 185.834,67.699 187.467,67.988 188.443 C 68.148 188.983,68.332 189.789,68.396 190.234 C 68.461 190.679,68.565 191.185,68.628 191.359 C 68.690 191.533,68.782 191.913,68.832 192.202 C 68.948 192.875,69.333 194.593,69.612 195.680 C 69.944 196.972,69.972 197.103,70.085 197.869 C 70.143 198.262,70.242 198.666,70.305 198.768 C 70.368 198.870,70.462 199.212,70.514 199.529 C 70.628 200.220,71.000 201.893,71.298 203.056 C 71.630 204.347,71.658 204.480,71.770 205.239 C 71.828 205.628,71.971 206.126,72.088 206.345 C 72.205 206.565,72.261 206.744,72.211 206.744 C 72.161 206.744,72.209 207.100,72.317 207.534 C 72.426 207.969,72.564 208.609,72.625 208.957 C 72.686 209.305,72.840 209.968,72.968 210.432 C 73.292 211.606,73.338 211.811,73.456 212.615 C 73.514 213.004,73.657 213.502,73.774 213.722 C 73.891 213.941,73.947 214.120,73.897 214.120 C 73.847 214.120,73.895 214.476,74.003 214.910 C 74.112 215.345,74.252 215.985,74.316 216.333 C 74.380 216.681,74.664 217.914,74.948 219.073 C 75.231 220.232,75.512 221.465,75.571 221.812 C 75.630 222.160,75.731 222.587,75.794 222.761 C 75.858 222.935,75.957 223.361,76.014 223.709 C 76.071 224.057,76.349 225.290,76.632 226.449 C 76.914 227.608,77.191 228.793,77.247 229.083 C 77.303 229.373,77.410 229.847,77.485 230.137 C 77.714 231.023,77.723 231.064,77.854 231.766 C 77.924 232.141,78.269 233.658,78.620 235.138 C 80.153 241.603,80.144 241.371,78.872 241.636 C 78.726 241.666,77.635 242.158,76.446 242.729 C 74.354 243.733,73.538 244.211,71.760 245.472 C 71.296 245.801,70.751 246.133,70.548 246.211 C 70.345 246.288,70.179 246.449,70.179 246.569 C 70.179 246.688,70.034 246.786,69.856 246.786 C 69.679 246.786,69.479 246.928,69.412 247.102 C 69.346 247.276,69.215 247.418,69.122 247.418 C 68.666 247.418,63.435 252.585,63.435 253.035 C 63.435 253.205,63.340 253.286,63.224 253.214 C 63.109 253.142,63.014 253.232,63.014 253.412 C 63.014 253.593,62.932 253.741,62.832 253.741 C 62.731 253.741,62.376 254.144,62.042 254.636 C 61.708 255.129,61.373 255.580,61.299 255.638 C 61.164 255.743,60.481 256.832,59.197 258.991 C 58.823 259.619,58.518 260.259,58.518 260.414 C 58.518 260.569,58.447 260.695,58.361 260.695 C 58.274 260.695,57.945 261.383,57.630 262.223 C 57.314 263.064,56.974 263.841,56.874 263.952 C 56.773 264.062,56.691 264.364,56.691 264.624 C 56.691 264.884,56.608 265.148,56.506 265.211 C 56.404 265.274,56.271 265.540,56.210 265.803 C 56.150 266.066,55.901 266.967,55.658 267.807 C 55.414 268.647,55.230 269.405,55.249 269.493 C 55.268 269.581,55.226 269.795,55.157 269.968 C 54.691 271.133,54.098 277.363,54.278 279.203 C 54.319 279.630,54.406 280.811,54.471 281.828 C 54.603 283.900,55.216 287.288,55.720 288.725 C 55.903 289.247,56.054 289.799,56.056 289.954 C 56.060 290.286,56.943 292.614,57.629 294.099 C 57.897 294.679,58.231 295.454,58.371 295.821 C 58.591 296.399,59.709 298.300,60.212 298.952 C 60.304 299.071,60.557 299.516,60.775 299.941 C 60.992 300.365,61.300 300.763,61.460 300.824 C 61.619 300.885,61.749 301.032,61.749 301.151 C 61.749 302.037,68.846 309.378,69.702 309.378 C 69.849 309.378,69.968 309.467,69.968 309.576 C 69.968 310.052,76.586 314.003,77.397 314.011 C 77.600 314.013,77.766 314.102,77.766 314.209 C 77.766 314.316,78.122 314.515,78.556 314.651 C 78.991 314.787,79.916 315.119,80.611 315.388 C 81.895 315.885,83.818 316.422,85.125 316.648 C 85.520 316.717,85.900 316.807,85.968 316.848 C 86.035 316.890,86.649 316.984,87.332 317.056 C 88.016 317.129,88.632 317.223,88.702 317.266 C 88.835 317.347,91.381 317.516,95.364 317.708 C 96.639 317.769,98.393 317.861,99.262 317.912 C 105.396 318.270,107.060 318.275,107.060 317.934 C 107.060 317.626,118.962 317.597,246.575 317.597 L 386.091 317.597 386.091 303.477 L 386.091 289.357 239.463 289.321 C 158.817 289.301,92.692 289.268,92.518 289.248 C 91.447 289.123,90.352 288.806,89.194 288.286 C 88.467 287.960,87.844 287.712,87.809 287.735 C 87.775 287.758,87.603 287.634,87.427 287.460 C 87.252 287.287,86.723 286.798,86.252 286.374 C 80.997 281.645,81.412 273.684,87.144 269.248 C 87.784 268.753,88.350 268.619,90.832 268.377 C 91.586 268.303,92.771 268.159,93.467 268.057 C 95.154 267.807,96.538 267.644,97.033 267.636 C 97.256 267.632,98.441 267.485,99.668 267.310 C 100.894 267.134,102.079 266.991,102.302 266.993 C 102.525 266.996,103.710 266.853,104.936 266.677 C 106.162 266.501,107.348 266.359,107.571 266.361 C 107.793 266.363,108.979 266.221,110.205 266.045 C 111.431 265.869,112.616 265.727,112.839 265.729 C 113.062 265.731,114.248 265.589,115.474 265.413 C 116.700 265.237,117.885 265.095,118.108 265.097 C 118.331 265.099,119.516 264.958,120.742 264.783 C 121.968 264.609,123.114 264.464,123.288 264.462 C 123.462 264.459,124.315 264.364,125.184 264.249 C 126.054 264.135,127.239 263.997,127.819 263.944 C 128.398 263.891,129.584 263.747,130.453 263.624 C 131.322 263.501,132.508 263.357,133.087 263.303 C 133.667 263.250,134.852 263.108,135.722 262.989 C 136.591 262.869,137.729 262.730,138.251 262.680 C 138.772 262.629,139.626 262.528,140.148 262.455 C 141.160 262.312,141.261 262.301,143.203 262.091 C 143.899 262.016,144.895 261.895,145.416 261.822 C 146.430 261.680,146.533 261.668,148.472 261.459 C 149.168 261.384,150.163 261.263,150.685 261.190 C 151.699 261.048,151.801 261.036,153.741 260.827 C 154.436 260.752,155.432 260.631,155.954 260.558 C 156.967 260.416,157.070 260.403,159.009 260.194 C 159.705 260.120,160.701 259.998,161.222 259.925 C 162.447 259.754,162.757 259.716,164.278 259.556 C 164.974 259.483,165.969 259.364,166.491 259.292 C 167.735 259.119,168.045 259.082,169.547 258.924 C 170.242 258.850,171.238 258.731,171.760 258.659 C 173.004 258.487,173.314 258.450,174.816 258.292 C 175.511 258.218,176.507 258.095,177.028 258.018 C 177.550 257.942,178.166 257.862,178.398 257.842 C 179.286 257.765,181.389 257.518,182.297 257.385 C 182.819 257.309,183.435 257.230,183.667 257.210 C 184.555 257.132,186.658 256.886,187.566 256.753 C 188.087 256.677,188.704 256.598,188.936 256.579 C 189.542 256.527,191.762 256.268,194.204 255.962 C 195.229 255.834,196.416 255.692,197.682 255.546 C 198.203 255.486,199.009 255.389,199.473 255.331 C 200.723 255.174,201.874 255.036,203.056 254.902 C 203.635 254.836,204.442 254.737,204.847 254.682 C 205.605 254.579,206.622 254.457,208.377 254.261 C 208.928 254.199,209.615 254.109,209.905 254.061 C 210.195 254.013,210.930 253.921,211.538 253.857 C 213.999 253.599,214.700 253.516,215.124 253.434 C 215.368 253.387,216.167 253.289,216.899 253.217 C 218.652 253.043,219.589 252.927,220.232 252.807 C 220.522 252.753,221.375 252.653,222.129 252.584 C 223.727 252.439,224.764 252.313,225.501 252.175 C 225.790 252.121,226.644 252.017,227.397 251.945 C 228.749 251.815,228.981 251.789,231.077 251.529 C 232.866 251.308,233.576 251.223,234.563 251.112 C 235.084 251.054,235.843 250.960,236.249 250.904 C 236.654 250.848,237.460 250.749,238.040 250.685 C 238.620 250.621,239.426 250.528,239.831 250.479 C 241.184 250.313,244.353 249.935,245.100 249.849 C 245.506 249.803,246.691 249.660,247.734 249.532 C 248.778 249.404,249.963 249.262,250.369 249.216 C 250.774 249.170,251.960 249.028,253.003 248.900 C 255.205 248.630,255.903 248.547,258.483 248.251 C 259.526 248.131,260.664 247.994,261.012 247.947 C 261.359 247.899,262.545 247.757,263.646 247.630 C 264.747 247.504,265.933 247.362,266.280 247.315 C 266.859 247.237,269.289 246.947,271.654 246.674 C 272.176 246.614,273.314 246.477,274.183 246.369 C 275.053 246.260,276.286 246.117,276.923 246.050 C 277.561 245.983,278.746 245.840,279.557 245.732 C 280.369 245.624,281.554 245.482,282.192 245.415 C 282.829 245.348,284.062 245.205,284.932 245.098 C 285.801 244.990,287.698 244.760,289.146 244.587 C 290.595 244.415,293.014 244.123,294.521 243.940 C 296.027 243.757,315.374 241.433,337.513 238.776 C 359.652 236.120,378.145 233.899,378.609 233.842 C 379.073 233.785,379.926 233.688,380.506 233.626 C 382.738 233.389,383.562 233.254,383.576 233.120 C 383.584 233.044,383.624 232.698,383.666 232.350 C 383.708 232.002,383.793 230.864,383.855 229.821 C 383.917 228.778,384.254 223.704,384.604 218.546 C 384.954 213.388,385.287 208.409,385.345 207.482 C 385.403 206.554,385.501 205.037,385.563 204.110 C 385.625 203.182,385.720 201.760,385.774 200.948 C 385.828 200.137,385.923 198.714,385.985 197.787 C 386.111 195.897,386.266 193.507,386.414 191.149 C 386.537 189.211,386.704 186.651,386.827 184.826 C 386.878 184.073,386.973 182.650,387.038 181.665 C 387.103 180.680,387.197 179.257,387.248 178.504 C 387.299 177.750,387.394 176.328,387.459 175.342 C 387.524 174.357,387.619 172.935,387.670 172.181 C 387.721 171.428,387.816 170.005,387.881 169.020 C 387.946 168.035,388.040 166.612,388.091 165.859 C 388.194 164.339,388.370 161.683,388.516 159.431 C 388.569 158.620,388.659 157.339,388.715 156.586 C 388.849 154.806,389.128 150.636,389.364 146.891 C 389.474 145.134,389.573 143.669,389.774 140.832 C 389.901 139.035,390.076 136.467,390.202 134.563 C 390.255 133.751,390.350 132.329,390.413 131.401 C 390.475 130.474,390.574 129.004,390.632 128.135 C 390.690 127.266,390.784 125.843,390.842 124.974 C 390.900 124.104,390.991 122.729,391.045 121.918 C 391.098 121.106,391.193 119.684,391.256 118.757 C 391.318 117.829,391.413 116.407,391.466 115.595 C 391.520 114.784,391.611 113.409,391.669 112.540 C 391.727 111.670,391.822 110.248,391.880 109.378 C 391.938 108.509,392.034 107.086,392.094 106.217 C 392.155 105.348,392.255 103.783,392.318 102.740 C 392.444 100.667,392.542 99.182,392.719 96.681 C 392.782 95.782,392.881 94.336,392.939 93.467 C 392.997 92.597,393.094 91.151,393.154 90.253 C 393.214 89.355,393.312 87.861,393.371 86.934 C 393.490 85.078,393.624 83.029,393.786 80.611 C 393.844 79.742,393.938 78.319,393.996 77.450 C 394.054 76.581,394.149 75.158,394.207 74.289 C 394.265 73.420,394.360 71.997,394.418 71.128 C 394.476 70.258,394.569 68.859,394.625 68.019 C 394.723 66.543,394.812 65.217,395.050 61.644 C 395.112 60.717,395.204 59.341,395.255 58.588 C 395.306 57.835,395.400 56.412,395.465 55.427 C 395.529 54.442,395.626 53.019,395.679 52.266 C 395.731 51.512,395.835 49.971,395.907 48.841 L 396.040 46.786 306.659 46.786 L 217.277 46.786 217.823 45.785 C 218.124 45.234,218.885 43.930,219.515 42.887 C 220.145 41.844,220.825 40.659,221.026 40.253 C 221.227 39.847,221.509 39.390,221.654 39.237 C 221.799 39.084,221.918 38.823,221.918 38.657 C 221.918 38.492,221.997 38.356,222.095 38.356 C 222.238 38.356,222.709 37.544,222.827 37.092 C 222.843 37.034,223.000 36.817,223.177 36.611 C 223.354 36.404,223.501 36.167,223.504 36.084 C 223.506 36.001,223.844 35.411,224.254 34.773 C 224.664 34.136,225.068 33.472,225.153 33.298 C 225.237 33.124,225.421 32.792,225.561 32.561 C 225.702 32.329,226.315 31.320,226.923 30.318 C 228.345 27.978,228.408 28.240,226.133 27.037 C 225.611 26.761,224.900 26.351,224.552 26.126 C 224.204 25.902,223.730 25.627,223.498 25.517 C 223.267 25.406,222.650 25.026,222.129 24.672 C 221.607 24.317,221.102 24.027,221.007 24.026 C 220.912 24.026,220.421 23.741,219.916 23.393 C 219.410 23.045,218.907 22.761,218.797 22.761 C 218.687 22.761,218.479 22.619,218.335 22.445 C 218.042 22.091,217.703 22.026,217.703 22.323 C 217.703 22.429,217.234 23.272,216.661 24.196 C 216.088 25.120,215.677 25.934,215.748 26.004 C 215.819 26.075,215.777 26.133,215.655 26.133 C 215.532 26.133,215.266 26.488,215.062 26.923 C 214.858 27.358,214.420 28.110,214.089 28.594 C 213.758 29.079,213.488 29.546,213.488 29.631 C 213.488 29.717,213.353 29.937,213.188 30.120 C 213.024 30.303,212.858 30.595,212.820 30.769 C 212.781 30.943,212.693 31.133,212.624 31.191 C 212.329 31.436,211.380 33.104,211.380 33.377 C 211.380 33.541,211.262 33.722,211.117 33.780 C 210.972 33.837,210.616 34.345,210.327 34.909 C 210.037 35.472,209.539 36.329,209.220 36.814 C 208.901 37.298,208.641 37.789,208.641 37.905 C 208.641 38.021,208.520 38.241,208.373 38.394 C 208.085 38.693,206.533 41.267,206.533 41.444 C 206.533 41.503,206.213 42.042,205.821 42.641 C 204.834 44.151,204.047 45.521,203.773 46.207 L 203.541 46.786 143.935 46.786 C 87.348 46.786,84.322 46.767,84.220 46.417 C 84.161 46.214,81.969 37.086,79.348 26.133 C 76.728 15.179,74.403 5.553,74.182 4.742 C 73.961 3.930,73.733 3.030,73.676 2.740 C 73.574 2.218,73.465 1.703,73.222 0.580 L 73.096 -0.000 36.542 -0.000 L -0.012 0.000 0.007 5.602 M58.578 20.706 C 58.841 21.778,59.099 22.889,59.150 23.173 C 59.202 23.458,59.478 24.589,59.762 25.685 C 60.047 26.782,60.330 27.960,60.391 28.304 C 60.451 28.647,60.736 29.833,61.023 30.938 C 61.310 32.044,61.595 33.229,61.655 33.572 C 61.716 33.916,62.000 35.101,62.287 36.207 C 62.575 37.312,62.859 38.498,62.920 38.841 C 62.980 39.184,63.265 40.370,63.552 41.475 C 63.839 42.581,64.124 43.767,64.184 44.110 C 64.244 44.453,64.529 45.639,64.816 46.744 C 65.103 47.850,65.388 49.035,65.448 49.379 C 65.509 49.722,65.793 50.907,66.081 52.013 C 66.368 53.118,66.651 54.296,66.710 54.630 C 66.815 55.228,67.689 58.838,68.076 60.274 C 68.185 60.680,68.426 61.675,68.610 62.487 C 68.794 63.298,69.000 64.104,69.068 64.278 C 69.137 64.452,69.174 64.675,69.152 64.774 C 68.951 65.662,68.825 65.651,78.606 65.591 L 87.882 65.534 87.882 74.918 L 87.882 84.303 75.719 84.248 L 63.557 84.194 63.177 82.508 C 62.968 81.581,62.737 80.680,62.663 80.506 C 62.588 80.332,62.514 80.095,62.497 79.979 C 62.335 78.875,61.080 73.254,60.945 73.028 C 60.877 72.914,60.803 72.677,60.780 72.501 C 60.758 72.325,60.638 71.707,60.514 71.128 C 60.389 70.548,60.240 69.837,60.181 69.547 C 59.804 67.682,59.366 65.828,59.259 65.652 C 59.191 65.538,59.117 65.301,59.094 65.125 C 59.072 64.949,58.952 64.331,58.828 63.751 C 58.578 62.587,58.494 62.186,58.146 60.485 C 58.016 59.847,57.851 59.231,57.780 59.115 C 57.709 58.999,57.635 58.809,57.614 58.693 C 57.593 58.577,54.627 49.646,51.022 38.845 C 47.417 28.044,44.468 19.105,44.468 18.982 C 44.468 18.827,46.591 18.757,51.284 18.757 L 58.100 18.757 58.578 20.706 M125.395 74.921 L 125.395 84.299 111.486 84.299 L 97.576 84.299 97.576 74.921 L 97.576 65.543 111.486 65.543 L 125.395 65.543 125.395 74.921 M162.908 74.921 L 162.908 84.299 148.999 84.299 L 135.090 84.299 135.090 74.921 L 135.090 65.543 148.999 65.543 L 162.908 65.543 162.908 74.921 M191.663 66.544 C 191.346 67.094,190.888 67.920,190.644 68.379 C 190.400 68.837,190.082 69.342,189.937 69.500 C 189.792 69.658,189.673 69.923,189.673 70.089 C 189.673 70.254,189.594 70.390,189.496 70.390 C 189.353 70.390,188.883 71.202,188.764 71.654 C 188.748 71.712,188.591 71.929,188.414 72.135 C 188.237 72.342,188.089 72.579,188.084 72.662 C 188.079 72.745,187.738 73.335,187.325 73.973 C 186.913 74.610,186.339 75.558,186.049 76.080 C 185.759 76.602,185.144 77.645,184.682 78.398 C 183.964 79.570,183.204 80.898,182.211 82.719 C 182.085 82.950,181.934 83.188,181.876 83.246 C 181.818 83.303,181.665 83.541,181.537 83.772 C 181.316 84.170,181.054 84.197,176.848 84.251 L 172.392 84.308 172.392 74.925 L 172.392 65.543 182.315 65.543 L 192.238 65.543 191.663 66.544 M237.935 74.921 L 237.935 84.299 223.920 84.299 L 209.905 84.299 209.905 74.921 L 209.905 65.543 223.920 65.543 L 237.935 65.543 237.935 74.921 M275.237 74.921 L 275.237 84.299 261.328 84.299 L 247.418 84.299 247.418 74.921 L 247.418 65.543 261.328 65.543 L 275.237 65.543 275.237 74.921 M312.750 74.921 L 312.750 84.299 298.841 84.299 L 284.932 84.299 284.932 74.921 L 284.932 65.543 298.841 65.543 L 312.750 65.543 312.750 74.921 M350.263 74.921 L 350.263 84.299 336.354 84.299 L 322.445 84.299 322.445 74.921 L 322.445 65.543 336.354 65.543 L 350.263 65.543 350.263 74.921 M375.906 65.701 C 375.854 65.788,375.748 66.997,375.670 68.388 C 375.592 69.779,375.494 71.249,375.452 71.654 C 375.410 72.060,375.314 73.483,375.240 74.816 C 375.165 76.149,375.069 77.571,375.027 77.977 C 374.984 78.383,374.884 79.900,374.805 81.349 C 374.726 82.798,374.619 84.054,374.568 84.141 C 374.517 84.228,371.161 84.299,367.111 84.299 L 359.747 84.299 359.747 74.921 L 359.747 65.543 367.873 65.543 C 372.343 65.543,375.957 65.614,375.906 65.701 M200.421 79.663 L 200.421 84.299 197.782 84.299 L 195.142 84.299 195.507 83.614 C 195.708 83.238,195.852 82.858,195.828 82.771 C 195.805 82.684,195.869 82.613,195.972 82.613 C 196.074 82.613,196.325 82.258,196.530 81.823 C 196.734 81.388,197.171 80.636,197.502 80.152 C 197.833 79.667,198.103 79.200,198.103 79.115 C 198.103 79.029,198.238 78.809,198.403 78.626 C 198.568 78.443,198.733 78.151,198.772 77.977 C 198.810 77.803,198.898 77.613,198.967 77.555 C 199.275 77.300,200.211 75.637,200.211 75.347 C 200.211 75.170,200.258 75.026,200.316 75.026 C 200.374 75.026,200.421 77.113,200.421 79.663 M87.932 107.745 L 87.987 121.707 80.058 121.650 L 72.128 121.592 71.900 120.701 C 71.775 120.211,71.472 118.909,71.228 117.808 C 70.983 116.707,70.607 115.047,70.390 114.120 C 70.174 113.193,69.748 111.344,69.443 110.011 C 69.139 108.678,68.758 107.018,68.596 106.322 C 67.766 102.745,66.725 98.166,66.480 97.013 C 66.328 96.298,66.103 95.350,65.980 94.906 C 65.857 94.462,65.755 94.028,65.755 93.941 C 65.754 93.854,70.731 93.783,76.815 93.783 L 87.876 93.783 87.932 107.745 M125.395 107.692 L 125.395 121.602 111.486 121.602 L 97.576 121.602 97.576 107.692 L 97.576 93.783 111.486 93.783 L 125.395 93.783 125.395 107.692 M162.908 104.626 L 162.908 115.469 162.303 116.375 C 161.969 116.874,161.631 117.495,161.551 117.756 C 161.470 118.016,161.324 118.230,161.224 118.230 C 161.125 118.230,160.935 118.562,160.801 118.967 C 160.667 119.373,160.493 119.705,160.415 119.705 C 160.337 119.705,160.047 120.132,159.770 120.653 L 159.267 121.602 147.178 121.602 L 135.090 121.602 135.090 107.692 L 135.090 93.783 148.999 93.783 L 162.908 93.783 162.908 104.626 M175.153 94.533 C 174.909 94.945,174.710 95.376,174.710 95.490 C 174.710 95.604,174.525 95.896,174.300 96.138 C 174.074 96.380,173.629 97.093,173.310 97.723 C 172.455 99.413,172.392 99.323,172.392 96.430 L 172.392 93.783 173.993 93.783 L 175.595 93.783 175.153 94.533 M200.421 107.692 L 200.421 121.602 186.828 121.602 C 179.352 121.602,173.235 121.557,173.235 121.502 C 173.235 121.220,174.187 119.494,174.343 119.494 C 174.443 119.494,174.466 119.399,174.394 119.283 C 174.322 119.168,174.343 119.073,174.439 119.073 C 174.536 119.073,174.802 118.717,175.031 118.282 C 175.260 117.848,175.709 117.099,176.027 116.619 C 176.346 116.138,176.607 115.655,176.607 115.544 C 176.607 115.434,176.797 115.125,177.028 114.858 C 177.260 114.590,177.450 114.251,177.450 114.103 C 177.450 113.955,177.572 113.709,177.720 113.556 C 178.067 113.198,179.234 111.196,179.158 111.088 C 179.126 111.043,179.185 110.948,179.288 110.877 C 179.392 110.806,179.924 109.989,180.470 109.062 C 181.017 108.135,181.552 107.234,181.659 107.060 C 182.202 106.182,183.887 103.270,184.277 102.538 C 184.521 102.080,184.839 101.575,184.984 101.417 C 185.129 101.258,185.248 100.994,185.248 100.828 C 185.248 100.662,185.327 100.527,185.425 100.527 C 185.568 100.527,186.038 99.715,186.157 99.262 C 186.173 99.204,186.330 98.988,186.507 98.781 C 186.684 98.575,186.831 98.338,186.833 98.254 C 186.836 98.171,187.174 97.582,187.584 96.944 C 187.994 96.307,188.398 95.643,188.483 95.469 C 188.634 95.158,188.981 94.565,189.317 94.046 C 189.446 93.847,190.812 93.783,194.954 93.783 L 200.421 93.783 200.421 107.692 M237.935 107.692 L 237.935 121.602 223.920 121.602 L 209.905 121.602 209.905 107.692 L 209.905 93.783 223.920 93.783 L 237.935 93.783 237.935 107.692 M275.237 107.692 L 275.237 121.602 261.328 121.602 L 247.418 121.602 247.418 107.692 L 247.418 93.783 261.328 93.783 L 275.237 93.783 275.237 107.692 M312.750 107.692 L 312.750 121.602 298.841 121.602 L 284.932 121.602 284.932 107.692 L 284.932 93.783 298.841 93.783 L 312.750 93.783 312.750 107.692 M350.263 107.692 L 350.263 121.602 336.354 121.602 L 322.445 121.602 322.445 107.692 L 322.445 93.783 336.354 93.783 L 350.263 93.783 350.263 107.692 M373.942 94.099 C 373.925 94.215,373.848 95.448,373.771 96.839 C 373.693 98.230,373.593 99.747,373.549 100.211 C 373.504 100.674,373.411 102.050,373.342 103.267 C 373.272 104.484,373.177 105.906,373.131 106.428 C 373.084 106.949,372.987 108.419,372.915 109.694 C 372.843 110.969,372.750 112.345,372.707 112.750 C 372.665 113.156,372.565 114.626,372.485 116.017 C 372.405 117.408,372.311 118.783,372.278 119.073 C 372.244 119.362,372.208 120.050,372.199 120.601 L 372.181 121.602 365.964 121.602 L 359.747 121.602 359.747 107.690 L 359.747 93.777 366.860 93.833 C 371.450 93.869,373.962 93.963,373.942 94.099 M87.932 145.100 L 87.876 159.115 84.228 159.115 L 80.579 159.115 80.221 157.376 C 79.843 155.542,79.717 155.005,79.661 155.005 C 79.643 155.005,79.600 154.816,79.566 154.584 C 79.458 153.848,79.228 152.712,79.033 151.949 C 78.769 150.914,78.439 149.446,78.276 148.577 C 78.200 148.172,78.083 147.747,78.015 147.633 C 77.947 147.519,77.875 147.282,77.855 147.106 C 77.795 146.591,77.551 145.370,77.347 144.573 C 77.083 143.538,76.753 142.070,76.590 141.201 C 76.514 140.796,76.397 140.370,76.329 140.257 C 76.261 140.143,76.189 139.906,76.169 139.730 C 76.109 139.215,75.865 137.994,75.661 137.197 C 75.397 136.161,75.067 134.694,74.904 133.825 C 74.828 133.419,74.712 132.996,74.645 132.884 C 74.579 132.773,74.493 132.371,74.454 131.992 L 74.383 131.302 81.185 131.243 C 84.926 131.211,87.987 131.162,87.987 131.135 C 87.987 131.108,87.962 137.392,87.932 145.100 M125.395 145.205 L 125.395 159.115 111.486 159.115 L 97.576 159.115 97.576 145.205 L 97.576 131.296 111.486 131.296 L 125.395 131.296 125.395 145.205 M153.334 131.627 C 153.152 131.809,153.003 132.094,153.003 132.260 C 153.003 132.425,152.924 132.561,152.826 132.561 C 152.683 132.561,152.212 133.373,152.094 133.825 C 152.078 133.883,151.921 134.099,151.744 134.306 C 151.567 134.513,151.420 134.750,151.417 134.833 C 151.415 134.916,151.077 135.506,150.667 136.143 C 150.257 136.781,149.853 137.445,149.768 137.619 C 149.684 137.792,149.500 138.124,149.359 138.356 C 149.219 138.588,148.616 139.584,148.018 140.569 C 146.467 143.129,145.622 144.623,145.485 145.047 C 145.420 145.250,145.294 145.416,145.205 145.416 C 145.117 145.416,144.984 145.582,144.911 145.785 C 144.837 145.988,144.660 146.344,144.517 146.577 C 142.753 149.444,142.306 150.244,142.412 150.350 C 142.480 150.418,142.436 150.474,142.314 150.474 C 142.192 150.474,141.925 150.830,141.721 151.264 C 141.517 151.699,141.080 152.451,140.749 152.936 C 140.418 153.420,140.148 153.887,140.148 153.973 C 140.148 154.059,140.013 154.279,139.848 154.462 C 139.683 154.645,139.517 154.937,139.479 155.111 C 139.441 155.285,139.353 155.474,139.283 155.532 C 138.976 155.788,138.040 157.451,138.040 157.741 C 138.040 157.917,137.961 158.061,137.865 158.061 C 137.769 158.061,137.563 158.298,137.408 158.588 C 137.167 159.038,136.978 159.115,136.108 159.115 L 135.090 159.115 135.090 145.205 L 135.090 131.296 144.378 131.296 C 152.821 131.296,153.635 131.326,153.334 131.627 M200.421 145.205 L 200.421 159.115 186.407 159.115 L 172.392 159.115 172.392 145.205 L 172.392 131.296 186.407 131.296 L 200.421 131.296 200.421 145.205 M237.935 145.205 L 237.935 159.115 223.920 159.115 L 209.905 159.115 209.905 145.205 L 209.905 131.296 223.920 131.296 L 237.935 131.296 237.935 145.205 M275.237 145.205 L 275.237 159.115 261.328 159.115 L 247.418 159.115 247.418 145.205 L 247.418 131.296 261.328 131.296 L 275.237 131.296 275.237 145.205 M312.750 145.205 L 312.750 159.115 298.841 159.115 L 284.932 159.115 284.932 145.205 L 284.932 131.296 298.841 131.296 L 312.750 131.296 312.750 145.205 M350.263 145.205 L 350.263 159.115 336.354 159.115 L 322.445 159.115 322.445 145.205 L 322.445 131.296 336.354 131.296 L 350.263 131.296 350.263 145.205 M371.440 131.770 C 371.412 132.031,371.324 133.383,371.245 134.773 C 371.166 136.164,371.064 137.682,371.020 138.145 C 370.976 138.609,370.882 139.984,370.813 141.201 C 370.743 142.418,370.648 143.841,370.602 144.362 C 370.555 144.884,370.458 146.354,370.386 147.629 C 370.314 148.904,370.221 150.279,370.179 150.685 C 370.136 151.091,370.036 152.561,369.956 153.952 C 369.876 155.342,369.782 156.718,369.749 157.007 C 369.715 157.297,369.679 157.890,369.670 158.325 L 369.652 159.115 364.700 159.115 L 359.747 159.115 359.747 145.205 L 359.747 131.296 365.619 131.296 L 371.491 131.296 371.440 131.770 M162.908 149.104 L 162.908 159.115 157.007 159.115 C 153.762 159.115,151.106 159.054,151.106 158.980 C 151.106 158.906,151.391 158.383,151.739 157.818 C 152.086 157.253,152.371 156.752,152.371 156.705 C 152.371 156.658,152.830 155.877,153.392 154.969 C 154.266 153.556,154.936 152.392,156.040 150.369 C 156.166 150.137,156.324 149.900,156.391 149.842 C 156.457 149.784,156.579 149.594,156.662 149.420 C 156.828 149.073,156.884 148.979,158.308 146.646 C 158.850 145.759,159.237 144.977,159.169 144.908 C 159.101 144.840,159.144 144.784,159.266 144.784 C 159.388 144.784,159.655 144.428,159.859 143.994 C 160.063 143.559,160.501 142.807,160.832 142.322 C 161.162 141.838,161.433 141.371,161.433 141.285 C 161.433 141.199,161.568 140.979,161.733 140.796 C 161.897 140.613,162.063 140.328,162.101 140.162 C 162.166 139.882,162.718 139.094,162.850 139.094 C 162.882 139.094,162.908 143.599,162.908 149.104 M87.869 179.399 C 87.856 189.301,87.750 191.251,87.363 188.629 C 87.320 188.334,87.130 187.429,86.943 186.617 C 86.755 185.806,86.554 184.905,86.495 184.615 C 86.396 184.121,86.170 183.133,85.457 180.084 C 84.837 177.432,84.795 177.266,84.730 177.187 C 84.705 177.158,84.658 176.944,84.624 176.712 C 84.591 176.481,84.510 176.054,84.445 175.764 C 84.380 175.474,84.234 174.810,84.121 174.289 C 83.920 173.365,83.306 170.707,83.147 170.074 C 83.103 169.900,83.053 169.758,83.036 169.758 C 83.020 169.758,82.971 169.497,82.929 169.178 L 82.853 168.599 85.367 168.599 L 87.882 168.599 87.869 179.399 M125.395 173.729 C 125.395 179.050,125.306 179.666,124.407 180.574 C 124.255 180.727,124.131 180.981,124.131 181.138 C 124.131 181.295,124.009 181.549,123.860 181.703 C 123.515 182.058,122.490 183.818,122.485 184.065 C 122.482 184.168,122.396 184.310,122.292 184.381 C 122.188 184.452,121.657 185.269,121.110 186.196 C 120.564 187.123,120.029 188.024,119.922 188.198 C 119.379 189.076,117.693 191.988,117.304 192.720 C 117.060 193.178,116.741 193.683,116.596 193.841 C 116.452 194.000,116.333 194.265,116.333 194.430 C 116.333 194.596,116.253 194.731,116.156 194.731 C 115.992 194.731,115.574 195.470,115.526 195.845 C 115.431 196.599,115.080 196.628,106.232 196.628 L 97.576 196.628 97.576 182.613 L 97.576 168.599 111.486 168.599 L 125.395 168.599 125.395 173.729 M162.908 182.613 L 162.908 196.628 148.999 196.628 L 135.090 196.628 135.090 191.340 L 135.090 186.052 136.240 184.016 C 136.872 182.897,137.478 181.878,137.587 181.751 C 137.695 181.625,138.010 181.103,138.287 180.592 C 138.564 180.081,139.035 179.283,139.333 178.820 C 139.631 178.356,139.943 177.763,140.026 177.503 C 140.108 177.242,140.257 177.028,140.356 177.028 C 140.455 177.028,140.646 176.697,140.780 176.291 C 140.914 175.885,141.104 175.553,141.203 175.553 C 141.303 175.553,141.442 175.371,141.512 175.148 C 141.583 174.925,141.871 174.403,142.152 173.989 C 142.434 173.574,142.596 173.234,142.512 173.232 C 142.429 173.230,142.461 173.159,142.584 173.074 C 142.823 172.907,144.784 169.726,144.784 169.503 C 144.784 168.628,145.093 168.599,154.195 168.599 L 162.908 168.599 162.908 182.613 M200.421 182.613 L 200.421 196.628 186.407 196.628 L 172.392 196.628 172.392 182.613 L 172.392 168.599 186.407 168.599 L 200.421 168.599 200.421 182.613 M237.935 182.613 L 237.935 196.628 223.920 196.628 L 209.905 196.628 209.905 182.613 L 209.905 168.599 223.920 168.599 L 237.935 168.599 237.935 182.613 M275.237 182.613 L 275.237 196.628 261.328 196.628 L 247.418 196.628 247.418 182.613 L 247.418 168.599 261.328 168.599 L 275.237 168.599 275.237 182.613 M312.750 182.613 L 312.750 196.628 298.841 196.628 L 284.932 196.628 284.932 182.613 L 284.932 168.599 298.841 168.599 L 312.750 168.599 312.750 182.613 M350.263 182.613 L 350.263 196.628 336.354 196.628 L 322.445 196.628 322.445 182.613 L 322.445 168.599 336.354 168.599 L 350.263 168.599 350.263 182.613 M368.936 169.600 C 368.879 170.150,368.776 171.596,368.706 172.813 C 368.636 174.031,368.541 175.453,368.495 175.975 C 368.449 176.496,368.355 177.919,368.285 179.136 C 368.215 180.353,368.119 181.776,368.073 182.297 C 368.026 182.819,367.929 184.289,367.857 185.564 C 367.785 186.839,367.692 188.214,367.650 188.620 C 367.608 189.025,367.507 190.495,367.427 191.886 C 367.347 193.277,367.254 194.652,367.220 194.942 C 367.186 195.232,367.151 195.730,367.141 196.048 L 367.123 196.628 363.435 196.628 L 359.747 196.628 359.747 182.613 L 359.747 168.599 364.393 168.599 L 369.039 168.599 368.936 169.600 M109.021 206.797 C 108.812 207.173,108.586 207.529,108.520 207.587 C 108.454 207.645,108.331 207.835,108.248 208.008 C 108.082 208.356,108.026 208.450,106.602 210.783 C 106.060 211.670,105.673 212.452,105.741 212.520 C 105.810 212.589,105.766 212.645,105.644 212.645 C 105.522 212.645,105.255 213.001,105.051 213.435 C 104.847 213.870,104.409 214.622,104.079 215.106 C 103.748 215.591,103.477 216.058,103.477 216.144 C 103.477 216.230,103.343 216.450,103.178 216.633 C 103.013 216.816,102.847 217.107,102.809 217.281 C 102.771 217.455,102.683 217.645,102.613 217.703 C 102.361 217.913,101.370 219.597,101.370 219.815 C 101.370 219.938,101.193 220.229,100.976 220.461 C 100.760 220.693,100.404 221.235,100.186 221.664 C 99.968 222.093,99.528 222.841,99.210 223.326 C 98.891 223.810,98.630 224.301,98.630 224.417 C 98.630 224.533,98.505 224.753,98.353 224.906 C 98.201 225.059,97.966 225.374,97.833 225.606 C 97.646 225.929,97.588 223.704,97.583 216.070 L 97.576 206.112 103.489 206.112 L 109.402 206.112 109.021 206.797 M125.395 220.126 L 125.395 234.141 116.122 234.141 C 111.022 234.141,106.849 234.087,106.849 234.021 C 106.849 233.954,107.110 233.458,107.429 232.919 C 107.748 232.379,108.103 231.774,108.219 231.575 C 108.335 231.376,108.894 230.426,109.461 229.463 C 110.029 228.501,110.693 227.338,110.937 226.880 C 111.181 226.421,111.499 225.916,111.644 225.758 C 111.789 225.600,111.907 225.335,111.907 225.169 C 111.907 225.004,111.987 224.868,112.084 224.868 C 112.228 224.868,112.698 224.056,112.817 223.604 C 112.832 223.546,112.989 223.329,113.166 223.123 C 113.343 222.916,113.492 222.679,113.497 222.596 C 113.502 222.513,113.843 221.923,114.255 221.286 C 114.667 220.648,115.242 219.700,115.532 219.178 C 115.821 218.656,116.436 217.613,116.898 216.860 C 117.617 215.688,118.376 214.360,119.370 212.540 C 119.496 212.308,119.654 212.071,119.720 212.013 C 119.787 211.955,119.909 211.765,119.992 211.591 C 120.158 211.243,120.212 211.153,121.650 208.798 C 122.198 207.900,122.602 207.165,122.547 207.165 C 122.492 207.165,122.654 206.928,122.906 206.639 C 123.276 206.213,123.559 206.112,124.379 206.112 L 125.395 206.112 125.395 220.126 M162.908 220.126 L 162.908 234.141 148.999 234.141 L 135.090 234.141 135.090 220.126 L 135.090 206.112 148.999 206.112 L 162.908 206.112 162.908 220.126 M200.421 220.126 L 200.421 234.141 186.407 234.141 L 172.392 234.141 172.392 220.126 L 172.392 206.112 186.407 206.112 L 200.421 206.112 200.421 220.126 M237.935 218.932 C 237.935 229.045,237.879 231.754,237.671 231.759 C 237.333 231.766,235.099 232.010,234.141 232.144 C 233.298 232.262,232.188 232.394,230.647 232.561 C 230.059 232.624,229.377 232.715,229.133 232.762 C 228.889 232.809,228.090 232.907,227.358 232.979 C 225.605 233.153,224.668 233.269,224.025 233.389 C 223.736 233.443,222.882 233.544,222.129 233.614 C 221.375 233.683,220.474 233.793,220.126 233.858 C 219.779 233.923,217.337 234.021,214.700 234.076 L 209.905 234.176 209.905 220.144 L 209.905 206.112 223.920 206.112 L 237.935 206.112 237.935 218.932 M275.237 216.721 L 275.237 227.330 274.131 227.364 C 273.522 227.383,272.751 227.456,272.416 227.526 C 271.791 227.658,271.597 227.682,269.442 227.906 C 268.746 227.979,267.750 228.101,267.229 228.178 C 266.229 228.325,266.172 228.332,264.173 228.539 C 263.477 228.611,262.482 228.733,261.960 228.810 C 261.438 228.887,260.822 228.966,260.590 228.986 C 259.702 229.064,257.599 229.310,256.691 229.443 C 256.170 229.519,255.553 229.598,255.321 229.617 C 255.090 229.637,254.331 229.719,253.635 229.800 C 252.121 229.976,251.358 230.070,248.262 230.458 L 247.418 230.563 247.418 218.338 L 247.418 206.112 261.328 206.112 L 275.237 206.112 275.237 216.721 M312.750 214.436 C 312.750 223.275,312.790 222.883,311.897 222.800 C 311.834 222.794,310.696 222.930,309.368 223.102 C 308.041 223.275,306.528 223.459,306.006 223.512 C 305.485 223.565,304.631 223.668,304.110 223.741 C 303.097 223.883,302.996 223.895,301.054 224.105 C 300.358 224.180,299.362 224.301,298.841 224.374 C 297.827 224.516,297.724 224.528,295.785 224.737 C 295.090 224.812,294.094 224.933,293.572 225.006 C 292.403 225.170,292.128 225.202,290.411 225.374 C 289.658 225.450,288.709 225.566,288.303 225.631 C 287.898 225.697,287.234 225.789,286.828 225.836 C 286.423 225.884,285.830 225.957,285.511 225.999 L 284.932 226.075 284.932 216.093 L 284.932 206.112 298.841 206.112 L 312.750 206.112 312.750 214.436 M350.263 212.104 C 350.263 218.860,350.410 218.304,348.588 218.451 C 345.925 218.665,344.840 218.783,344.478 218.895 C 344.075 219.020,342.758 219.174,341.955 219.191 C 341.732 219.195,340.547 219.343,339.321 219.519 C 338.095 219.695,336.909 219.837,336.687 219.835 C 336.464 219.833,335.278 219.975,334.052 220.151 C 332.826 220.327,331.641 220.469,331.418 220.467 C 331.195 220.465,330.010 220.601,328.784 220.770 C 327.557 220.938,326.043 221.119,325.419 221.172 C 324.794 221.225,323.870 221.330,323.364 221.406 L 322.445 221.544 322.445 213.828 L 322.445 206.112 336.354 206.112 L 350.263 206.112 350.263 212.104 M366.394 207.745 C 366.191 210.423,366.095 211.794,365.953 214.015 C 365.801 216.408,365.775 216.457,364.668 216.542 C 361.528 216.781,360.470 216.909,360.133 217.090 C 359.764 217.287,359.747 217.057,359.747 211.704 L 359.747 206.112 363.132 206.112 L 366.518 206.112 366.394 207.745 M125.395 244.358 C 125.395 244.948,125.302 245.113,124.921 245.197 C 124.152 245.368,101.122 248.084,101.062 248.012 C 100.351 247.147,100.331 244.255,101.033 243.786 C 101.160 243.701,106.694 243.630,113.330 243.628 L 125.395 243.625 125.395 244.358 M136.459 243.816 C 135.880 243.889,135.288 244.023,135.145 244.114 C 134.965 244.227,134.923 244.177,135.009 243.952 C 135.104 243.704,135.424 243.632,136.324 243.655 L 137.513 243.684 136.459 243.816 M129.981 337.107 C 129.944 337.145,129.015 337.225,127.918 337.286 C 126.820 337.347,125.661 337.439,125.343 337.489 C 125.025 337.540,124.361 337.646,123.868 337.726 C 121.576 338.095,117.012 339.574,115.931 340.297 C 115.631 340.499,115.337 340.670,115.279 340.678 C 114.827 340.739,113.172 341.648,113.172 341.834 C 113.172 341.963,113.083 342.015,112.976 341.948 C 112.868 341.881,112.719 341.924,112.645 342.044 C 112.571 342.164,112.209 342.394,111.840 342.555 C 111.471 342.717,110.918 343.071,110.610 343.342 C 110.302 343.614,109.837 343.978,109.576 344.152 C 107.344 345.642,102.824 350.587,101.959 352.487 C 101.830 352.771,101.654 353.003,101.568 353.003 C 101.361 353.003,98.970 357.860,98.456 359.326 C 95.787 366.936,95.751 374.184,98.342 382.192 C 98.768 383.510,101.352 388.830,101.566 388.830 C 101.653 388.830,101.828 389.059,101.956 389.340 C 102.866 391.338,107.220 396.103,109.578 397.682 C 109.837 397.856,110.302 398.220,110.610 398.491 C 110.918 398.763,111.471 399.117,111.840 399.278 C 112.209 399.440,112.571 399.670,112.645 399.789 C 112.719 399.909,112.868 399.952,112.976 399.886 C 113.083 399.819,113.172 399.864,113.172 399.985 C 113.172 400.541,118.834 402.942,121.827 403.657 C 124.987 404.411,125.931 404.509,130.137 404.521 C 133.584 404.530,134.420 404.475,136.776 404.086 C 137.966 403.889,140.774 403.076,142.150 402.530 C 142.381 402.438,143.022 402.203,143.572 402.007 C 144.123 401.811,144.573 401.548,144.573 401.423 C 144.573 401.297,144.636 401.257,144.713 401.334 C 144.872 401.493,147.407 400.143,148.066 399.548 C 148.307 399.331,148.565 399.215,148.641 399.291 C 148.716 399.366,148.838 399.273,148.911 399.083 C 148.984 398.893,149.129 398.791,149.233 398.855 C 149.338 398.920,149.480 398.825,149.550 398.643 C 149.619 398.462,149.760 398.314,149.863 398.314 C 150.202 398.314,152.730 396.256,154.152 394.823 C 155.068 393.899,156.820 391.877,156.860 391.697 C 156.883 391.593,157.210 391.172,157.587 390.760 C 157.964 390.349,158.272 389.889,158.272 389.738 C 158.272 389.586,158.367 389.463,158.483 389.463 C 158.599 389.463,158.693 389.376,158.693 389.270 C 158.693 389.164,159.025 388.574,159.431 387.958 C 159.837 387.342,160.169 386.710,160.169 386.555 C 160.169 386.399,160.312 386.128,160.487 385.953 C 160.662 385.778,160.751 385.548,160.685 385.441 C 160.619 385.335,160.642 385.247,160.736 385.247 C 160.829 385.246,161.064 384.843,161.257 384.351 C 162.372 381.504,162.675 380.642,162.798 379.979 C 162.973 379.028,163.045 378.703,163.478 376.923 C 163.993 374.806,163.993 367.028,163.478 364.910 C 163.045 363.131,162.973 362.806,162.798 361.855 C 162.675 361.191,162.372 360.329,161.257 357.482 C 161.064 356.990,160.829 356.587,160.736 356.587 C 160.642 356.586,160.619 356.499,160.685 356.392 C 160.751 356.286,160.662 356.055,160.487 355.880 C 160.312 355.705,160.169 355.435,160.169 355.279 C 160.169 355.123,159.837 354.492,159.431 353.876 C 159.025 353.260,158.693 352.669,158.693 352.563 C 158.693 352.457,158.599 352.371,158.483 352.371 C 158.367 352.371,158.272 352.247,158.272 352.096 C 158.272 351.945,157.929 351.447,157.510 350.990 C 157.091 350.532,156.783 350.131,156.825 350.099 C 156.902 350.040,155.000 347.871,154.126 347.021 C 152.199 345.145,150.219 343.519,149.863 343.519 C 149.760 343.519,149.619 343.371,149.550 343.190 C 149.480 343.009,149.338 342.913,149.233 342.978 C 149.129 343.043,148.986 342.948,148.917 342.767 C 148.848 342.587,148.706 342.491,148.603 342.555 C 148.499 342.619,148.295 342.528,148.149 342.353 C 147.816 341.950,144.779 340.294,143.519 339.828 C 142.998 339.634,142.381 339.400,142.150 339.306 C 140.738 338.737,137.900 337.923,136.670 337.735 C 134.846 337.455,134.305 337.388,133.087 337.288 C 132.392 337.231,131.424 337.152,130.936 337.112 C 130.448 337.072,130.018 337.070,129.981 337.107 M330.242 337.222 C 327.767 337.415,325.271 337.814,323.815 338.248 C 320.530 339.229,315.553 341.366,315.076 342.000 C 315.014 342.082,314.625 342.321,314.213 342.530 C 313.800 342.739,313.216 343.119,312.915 343.373 C 312.614 343.628,312.151 343.978,311.886 344.152 C 309.631 345.629,304.029 351.869,304.270 352.634 C 304.298 352.721,304.228 352.792,304.115 352.792 C 303.913 352.792,303.237 353.923,303.280 354.189 C 303.293 354.264,303.211 354.384,303.100 354.455 C 302.856 354.610,301.159 358.063,301.054 358.618 C 301.014 358.834,300.962 359.033,300.938 359.062 C 300.915 359.091,300.878 359.186,300.857 359.273 C 300.835 359.360,300.663 359.783,300.475 360.214 C 300.287 360.645,300.085 361.261,300.026 361.584 C 299.968 361.907,299.857 362.408,299.781 362.698 C 298.480 367.663,298.480 374.171,299.781 379.136 C 299.857 379.426,299.968 379.927,300.026 380.250 C 300.085 380.572,300.287 381.189,300.475 381.620 C 300.663 382.050,300.835 382.474,300.857 382.561 C 300.878 382.648,300.915 382.742,300.938 382.771 C 300.962 382.800,301.014 383.000,301.054 383.215 C 301.159 383.770,302.856 387.224,303.100 387.379 C 303.211 387.450,303.293 387.569,303.280 387.644 C 303.237 387.910,303.913 389.041,304.115 389.041 C 304.228 389.041,304.298 389.112,304.270 389.199 C 304.195 389.439,305.643 391.530,306.785 392.828 C 308.311 394.565,310.955 397.084,311.879 397.682 C 312.148 397.856,312.614 398.206,312.915 398.460 C 313.216 398.715,313.800 399.094,314.213 399.303 C 314.625 399.513,315.014 399.751,315.075 399.833 C 315.189 399.984,319.088 402.039,319.283 402.051 C 319.341 402.055,319.721 402.196,320.126 402.365 C 320.532 402.534,321.386 402.832,322.023 403.028 C 322.661 403.224,323.467 403.471,323.815 403.579 C 324.162 403.686,324.684 403.820,324.974 403.876 C 325.263 403.931,325.975 404.082,326.554 404.210 C 330.942 405.180,342.823 404.110,343.780 402.658 C 343.865 402.529,343.936 402.490,343.938 402.570 C 343.946 402.946,348.350 400.967,350.369 399.680 C 354.632 396.963,359.763 391.867,361.080 389.041 C 361.161 388.867,361.413 388.440,361.641 388.093 C 362.363 386.989,363.342 385.037,363.175 385.034 C 363.086 385.032,363.139 384.951,363.291 384.854 C 363.444 384.758,363.593 384.546,363.623 384.384 C 363.652 384.221,363.835 383.723,364.028 383.277 C 364.423 382.366,365.231 379.826,365.198 379.599 C 365.186 379.518,365.200 379.381,365.228 379.294 C 365.256 379.207,365.303 379.041,365.332 378.925 C 365.361 378.809,365.408 378.667,365.437 378.609 C 365.512 378.460,365.555 378.287,365.727 377.450 C 366.477 373.796,366.477 368.038,365.727 364.384 C 365.555 363.546,365.512 363.373,365.437 363.224 C 365.408 363.166,365.361 363.024,365.332 362.908 C 365.303 362.792,365.256 362.626,365.228 362.540 C 365.200 362.453,365.186 362.315,365.198 362.234 C 365.231 362.008,364.423 359.468,364.028 358.556 C 363.835 358.110,363.652 357.612,363.623 357.450 C 363.593 357.288,363.444 357.076,363.291 356.979 C 363.139 356.882,363.086 356.802,363.175 356.800 C 363.342 356.797,362.363 354.845,361.641 353.741 C 361.413 353.393,361.161 352.966,361.080 352.792 C 359.769 349.980,354.580 344.826,350.369 342.153 C 349.189 341.404,346.678 340.148,346.363 340.148 C 346.190 340.148,346.048 340.065,346.048 339.964 C 346.048 339.784,344.435 339.250,344.070 339.310 C 343.967 339.327,343.825 339.250,343.754 339.140 C 343.363 338.534,337.215 337.257,334.457 337.210 C 333.704 337.197,332.945 337.156,332.771 337.118 C 332.597 337.081,331.459 337.128,330.242 337.222 M132.877 354.355 C 133.938 354.513,136.399 355.233,136.986 355.556 C 137.160 355.652,137.871 356.041,138.567 356.419 C 143.422 359.062,147.335 365.983,146.979 371.299 C 146.749 374.748,145.279 379.090,143.744 380.858 C 142.058 382.799,139.785 384.754,138.251 385.582 C 137.729 385.864,137.160 386.178,136.986 386.280 C 134.392 387.806,128.457 388.021,124.835 386.721 C 124.158 386.477,123.485 386.268,123.340 386.255 C 123.195 386.242,123.077 386.158,123.077 386.070 C 123.077 385.981,122.864 385.841,122.603 385.760 C 122.342 385.678,121.732 385.340,121.248 385.008 C 120.763 384.676,120.320 384.405,120.263 384.405 C 120.206 384.405,119.878 384.144,119.534 383.825 C 119.190 383.506,118.780 383.143,118.622 383.019 C 118.317 382.778,117.486 381.768,116.259 380.147 C 112.617 375.337,112.609 366.475,116.244 361.714 C 117.659 359.860,118.547 358.798,118.755 358.712 C 118.869 358.664,119.232 358.355,119.561 358.027 C 119.890 357.698,120.206 357.429,120.263 357.429 C 120.320 357.429,120.763 357.157,121.248 356.825 C 121.732 356.494,122.342 356.155,122.603 356.074 C 122.864 355.992,123.077 355.821,123.077 355.694 C 123.077 355.566,123.132 355.517,123.198 355.583 C 123.265 355.650,123.717 355.529,124.203 355.314 C 126.365 354.358,130.114 353.943,132.877 354.355 M335.616 354.502 C 337.005 354.733,337.139 354.765,337.655 354.990 C 337.849 355.074,338.133 355.165,338.287 355.191 C 338.441 355.217,338.870 355.400,339.241 355.596 C 339.612 355.793,340.063 355.954,340.242 355.954 C 340.422 355.954,340.569 356.048,340.569 356.164 C 340.569 356.280,340.711 356.375,340.885 356.375 C 341.059 356.375,341.201 356.470,341.201 356.586 C 341.201 356.702,341.305 356.797,341.431 356.797 C 342.908 356.797,348.367 363.717,348.367 365.589 C 348.367 365.738,348.462 365.859,348.577 365.859 C 348.693 365.859,348.770 365.930,348.748 366.017 C 348.726 366.104,348.831 366.867,348.980 367.712 C 349.322 369.652,349.337 372.353,349.013 373.906 C 348.876 374.565,348.749 375.300,348.731 375.539 C 348.713 375.779,348.624 375.975,348.533 375.975 C 348.441 375.975,348.367 376.096,348.367 376.244 C 348.367 378.128,342.917 385.037,341.431 385.037 C 341.305 385.037,341.201 385.132,341.201 385.248 C 341.201 385.364,341.059 385.458,340.885 385.458 C 340.711 385.458,340.569 385.553,340.569 385.669 C 340.569 385.785,340.422 385.880,340.242 385.880 C 340.063 385.880,339.612 386.041,339.241 386.237 C 338.870 386.434,338.472 386.616,338.356 386.641 C 337.710 386.785,335.148 387.433,334.879 387.522 C 334.250 387.728,330.500 387.605,329.279 387.338 C 327.693 386.992,328.170 387.151,325.740 386.152 C 322.904 384.985,319.882 382.337,318.324 379.653 C 317.991 379.079,317.644 378.577,317.553 378.539 C 317.461 378.500,317.387 378.349,317.387 378.202 C 317.387 378.056,317.245 377.652,317.072 377.304 C 315.518 374.190,315.518 367.644,317.072 364.529 C 317.245 364.182,317.387 363.813,317.387 363.710 C 317.387 363.607,317.482 363.408,317.598 363.268 C 317.715 363.128,318.184 362.445,318.640 361.749 C 322.372 356.065,328.717 353.357,335.616 354.502 M127.819 362.761 C 127.355 362.876,126.906 363.074,126.821 363.202 C 126.736 363.330,126.665 363.363,126.663 363.274 C 126.658 363.022,124.938 364.158,124.223 364.886 C 123.344 365.781,122.217 367.617,122.179 368.214 C 122.163 368.483,122.062 368.764,121.956 368.837 C 121.703 369.011,121.703 372.822,121.956 372.996 C 122.062 373.070,122.163 373.350,122.179 373.619 C 122.270 375.059,126.098 379.206,126.742 378.562 C 126.813 378.491,126.870 378.529,126.870 378.646 C 126.870 379.492,131.488 379.542,133.470 378.717 C 135.696 377.790,138.690 374.538,138.139 373.646 C 138.083 373.556,138.154 373.443,138.297 373.395 C 138.482 373.334,138.556 372.623,138.556 370.917 C 138.556 369.211,138.482 368.500,138.297 368.438 C 138.154 368.391,138.083 368.278,138.139 368.188 C 138.355 367.838,137.189 365.899,136.137 364.859 C 134.064 362.807,130.883 362.005,127.819 362.761 M329.949 362.822 C 329.381 363.002,328.782 363.285,328.616 363.450 C 328.451 363.616,328.177 363.751,328.008 363.751 C 327.839 363.751,327.646 363.894,327.579 364.067 C 327.512 364.241,327.332 364.384,327.178 364.384 C 327.024 364.384,326.576 364.787,326.182 365.279 C 325.384 366.277,324.457 367.756,324.630 367.756 C 324.691 367.756,324.596 368.102,324.419 368.526 C 324.225 368.991,324.097 369.940,324.097 370.917 C 324.097 371.893,324.225 372.843,324.419 373.307 C 324.596 373.731,324.691 374.078,324.630 374.078 C 324.457 374.078,325.384 375.556,326.182 376.554 C 326.576 377.047,327.035 377.450,327.201 377.450 C 327.367 377.450,327.503 377.550,327.503 377.672 C 327.503 377.794,327.787 377.993,328.135 378.114 C 328.483 378.235,328.767 378.409,328.767 378.501 C 328.767 379.551,334.106 379.543,336.248 378.491 C 345.494 373.947,339.769 359.707,329.949 362.822 " stroke="none" fill="#646464" fill-rule="evenodd"></path><path id="path1" d="M74.145 65.701 C 76.732 65.734,80.905 65.734,83.418 65.700 C 85.931 65.667,83.815 65.639,78.714 65.639 C 73.614 65.640,71.558 65.667,74.145 65.701 M104.478 65.701 C 108.332 65.733,114.639 65.733,118.493 65.701 C 122.347 65.668,119.194 65.642,111.486 65.642 C 103.778 65.642,100.624 65.668,104.478 65.701 M141.992 65.701 C 145.846 65.733,152.152 65.733,156.006 65.701 C 159.860 65.668,156.707 65.642,148.999 65.642 C 141.291 65.642,138.138 65.668,141.992 65.701 M177.292 65.701 C 180.045 65.734,184.550 65.734,187.302 65.701 C 190.055 65.667,187.803 65.640,182.297 65.640 C 176.791 65.640,174.539 65.667,177.292 65.701 M216.928 65.701 C 220.848 65.733,227.202 65.733,231.048 65.701 C 234.894 65.668,231.686 65.642,223.920 65.642 C 216.154 65.642,213.007 65.669,216.928 65.701 M254.320 65.701 C 258.174 65.733,264.481 65.733,268.335 65.701 C 272.189 65.668,269.036 65.642,261.328 65.642 C 253.620 65.642,250.466 65.668,254.320 65.701 M291.834 65.701 C 295.688 65.733,301.994 65.733,305.848 65.701 C 309.702 65.668,306.549 65.642,298.841 65.642 C 291.133 65.642,287.979 65.668,291.834 65.701 M329.347 65.701 C 333.201 65.733,339.507 65.733,343.361 65.701 C 347.215 65.668,344.062 65.642,336.354 65.642 C 328.646 65.642,325.493 65.668,329.347 65.701 M363.685 65.700 C 365.908 65.735,369.607 65.735,371.904 65.701 C 374.201 65.666,372.381 65.639,367.861 65.639 C 363.340 65.638,361.461 65.666,363.685 65.700 " stroke="none" fill="#686464" fill-rule="evenodd"></path></g></svg>