<svg xmlns="http://www.w3.org/2000/svg" viewBox="0 0 32 32"><defs><style>.cls-1{fill:#228ccc;}</style></defs><g id="Layer_2" data-name="Layer 2"><g id="Layer_1-2" data-name="Layer 1"><path class="cls-1" d="M15.48,0h.45c2.82,0,5.64,0,8.46,0a7.76,7.76,0,0,1,2.82.57c2.86,1.19,4.37,4.61,4.16,9.22a7.24,7.24,0,0,1-2.13,5.22c-.13.12-.26.23-.43.36l.24.2c3.4,2.22,3.8,9.66,1.51,13.06-2.11,3.13-5.78,2.25-7.15-1.76-.05-.15-.09-.31-.14-.49a10.76,10.76,0,0,0,2.07-.22,4.43,4.43,0,0,0,1.79-.94,4.29,4.29,0,0,0,.41-5.08,3.74,3.74,0,0,0-3.08-2,16,16,0,0,1-1.7-.1c-1.24-.22-2.15-1.25-2.74-3-.24-.7-.42-1.44-.66-2.27h.51c1.5,0,3,0,4.52,0a5,5,0,0,0,1.31-.22A2.85,2.85,0,0,0,27.52,10,4.61,4.61,0,0,0,26.3,6.25a2.83,2.83,0,0,0-2-.75c-1.62,0-3.23,0-4.85,0-1.36,0-2.37-1-3-2.86C16.12,1.8,15.82,1,15.48,0Z"/><path class="cls-1" d="M0,32C2.76,22.32,5.51,12.77,8.26,3.18c.7,1.62,1.11,5.76,1,8.62a37.12,37.12,0,0,1-1.72,8.47l.48,0h3.77c.79,0,1.44.41,1.82,1.56.62,1.88-.23,4.05-1.6,4.11a16.59,16.59,0,0,0-2.73.13c-2.2.46-3.82,2.33-4.88,5.36-.14.39-.29.54-.58.53-1.12,0-2.24,0-3.36,0Z"/><path class="cls-1" d="M9.39.07c1.66-.2,3.2-.1,4.36,2a8.53,8.53,0,0,1,.7,1.66q4,13.9,8,27.81c0,.12.06.24.08.36-2.24.41-4.25-.07-5.37-4.11-2.5-9-5.05-18-7.58-27C9.52.59,9.47.37,9.39.07Z"/></g></g></svg>