<svg id="Layer_1" data-name="Layer 1" xmlns="http://www.w3.org/2000/svg" viewBox="0 0 792 398.62"><defs><style>.cls-1{fill:#2f2e41;}.cls-2{fill:#a0616a;}.cls-3{fill:#ccc;}.cls-4{fill:#fff;}.cls-5{fill:#3f3d56;}.cls-6{fill:#e6e6e6;}.cls-7{fill:#1aa2b9;}.cls-8{fill:#ffb8b8;}.cls-9{fill:#f2f2f2;}</style></defs><path class="cls-1" d="M635.06,79.81h-58a4.49,4.49,0,0,1-4.5-4.5v-21a33.5,33.5,0,1,1,67,0v21A4.51,4.51,0,0,1,635.06,79.81Z"/><polygon class="cls-2" points="544.85 385.9 533.11 382.38 541.1 335.41 558.43 340.61 544.85 385.9"/><path class="cls-1" d="M544.43,398.18l-37.86-11.35.14-.48A15.39,15.39,0,0,1,525.87,376h0L549,383Z"/><polygon class="cls-2" points="681.64 386.3 669.38 386.3 663.54 339.01 681.64 339.01 681.64 386.3"/><path class="cls-1" d="M684.76,398.18H645.23v-.5a15.38,15.38,0,0,1,15.39-15.38h24.14Z"/><circle class="cls-2" cx="607.4" cy="55.05" r="24.56"/><path class="cls-1" d="M578.11,358.45a5.28,5.28,0,0,1-1.31-.16l-49.22-12.8a5.29,5.29,0,0,1-3.79-6.45,5.08,5.08,0,0,1,.17-.51C553.8,258.27,578.23,189,575,154.74a66.1,66.1,0,0,1-6.9-30L568.41,90a6.78,6.78,0,0,1,6.86-6.72,6.28,6.28,0,0,1,1.43.17L631.77,96l.31,1a72.25,72.25,0,0,1-1.26,45.08c32.46,29.31,54.22,125.52,66.78,201.2a5.3,5.3,0,0,1-3.3,5.79l-.15,0-38.61,3.82a5.28,5.28,0,0,1-6.79-3.12c0-.1-.08-.2-.11-.3L615.47,240,583.21,354.6A5.3,5.3,0,0,1,578.11,358.45Z"/><path class="cls-1" d="M630.75,55.81H598.32a2.5,2.5,0,0,1-2.48-2.19l-.42-3.36a1.5,1.5,0,0,0-1.67-1.3,1.53,1.53,0,0,0-1.18.86l-2.12,4.55a2.5,2.5,0,0,1-2.27,1.44h-4.92a2.49,2.49,0,0,1-2.5-2.5,1.69,1.69,0,0,1,0-.23l1.94-20.29a2.52,2.52,0,0,1,1.43-2c14.85-6.93,29.91-6.92,44.76,0a2.49,2.49,0,0,1,1.41,1.92L633.22,53a2.5,2.5,0,0,1-2.11,2.83Z"/><path class="cls-3" d="M557.58,364.77,249.67,338.92a8.51,8.51,0,0,1-7.76-9.18l11.63-138.52a8.5,8.5,0,0,1,9.18-7.75l307.91,25.84a8.51,8.51,0,0,1,7.76,9.19L566.76,357A8.5,8.5,0,0,1,557.58,364.77Z"/><path class="cls-4" d="M553.35,355.38l-298-25a4.52,4.52,0,0,1-4.11-4.86L262.09,197a4.5,4.5,0,0,1,4.86-4.11l298,25a4.53,4.53,0,0,1,4.11,4.87l-10.8,128.54A4.5,4.5,0,0,1,553.35,355.38Z"/><path class="cls-5" d="M476.6,307.13h.06a38.66,38.66,0,0,0,6.46-76.9.91.91,0,0,0-.69.19.87.87,0,0,0-.33.61l-6.3,75.14a.89.89,0,0,0,.8,1Z"/><path class="cls-6" d="M451.05,240.41a1.13,1.13,0,0,1,.78.39l24,28.36a1.14,1.14,0,0,1,.26.83l-3,35.95a1.12,1.12,0,0,1-.43.79,1.16,1.16,0,0,1-.88.24,38.91,38.91,0,0,1-21.57-66.24,1.18,1.18,0,0,1,.85-.33Z"/><path class="cls-7" d="M478.3,229.58a1.13,1.13,0,0,1,.76.37,1.1,1.1,0,0,1,.28.85l-2.72,32.44a1.13,1.13,0,0,1-2,.64l-20.92-24.75a1.14,1.14,0,0,1,.14-1.6l0,0a39,39,0,0,1,24.34-7.93Z"/><path class="cls-7" d="M459.92,321.59a6.94,6.94,0,1,1-6.34-7.5A6.95,6.95,0,0,1,459.92,321.59Z"/><path class="cls-5" d="M479.69,323.25a6.94,6.94,0,1,1-6.34-7.5A6.95,6.95,0,0,1,479.69,323.25Z"/><path class="cls-6" d="M499.46,324.91a6.94,6.94,0,1,1-6.34-7.5A6.95,6.95,0,0,1,499.46,324.91Z"/><path class="cls-6" d="M376,240.6l-63.49-5.33a4.73,4.73,0,0,0-.79,9.42L375.24,250a4.73,4.73,0,0,0,.8-9.42Z"/><path class="cls-6" d="M373.87,266.33,310.38,261a4.72,4.72,0,0,0-2.69,8.84,4.84,4.84,0,0,0,1.9.58l63.49,5.33a4.73,4.73,0,0,0,.8-9.42Z"/><path class="cls-6" d="M371.71,292.06l-63.49-5.33a4.72,4.72,0,1,0-.8,9.41h0l63.49,5.33a4.73,4.73,0,0,0,.8-9.42Z"/><path class="cls-7" d="M358,239.08l-45.42-3.81a4.73,4.73,0,0,0-.79,9.42l44.47,3.73a5.38,5.38,0,0,0,1.74-9.34Z"/><path class="cls-7" d="M334.82,263.05,310.38,261a4.72,4.72,0,0,0-2.69,8.84l22.45,1.88a5.38,5.38,0,0,0,5.81-4.91A5.26,5.26,0,0,0,334.82,263.05Z"/><path class="cls-7" d="M367,291.66l-58.74-4.93a4.72,4.72,0,1,0-.8,9.41h0l59.12,5a5.37,5.37,0,0,0,2.5-7.17,5.29,5.29,0,0,0-2.09-2.28Z"/><path class="cls-2" d="M531,215.83a10.73,10.73,0,0,0,8-12.89,11.11,11.11,0,0,0-.58-1.8l34.62-90.83L555.38,106l-31.8,89.74A10.8,10.8,0,0,0,531,215.83Z"/><path class="cls-1" d="M574.72,128.62a5.28,5.28,0,0,1-2.25-.5h0l-22-10.31a5.31,5.31,0,0,1-2.56-7.07,5,5,0,0,1,.38-.68l13.39-20.23a13.6,13.6,0,0,1,7.78-7,13.88,13.88,0,0,1,17.29,18.94l-6.9,23.09a5.31,5.31,0,0,1-5.09,3.79Z"/><path class="cls-2" d="M560.5,217.38a10.73,10.73,0,0,0,10.38-11.09,10,10,0,0,0-.23-1.88l56.2-80.1-16.79-9L557.13,196.2a10.8,10.8,0,0,0,3.37,21.18Z"/><path class="cls-1" d="M621.34,140.41a5.42,5.42,0,0,1-3.15-1L598.58,125a5.33,5.33,0,0,1-1.15-7.44,7.19,7.19,0,0,1,.51-.59L615,99.72a13.56,13.56,0,0,1,9-5.4,13.88,13.88,0,0,1,13.29,21.93L626,137.57A5.35,5.35,0,0,1,621.34,140.41Z"/><path class="cls-8" d="M265.57,198.17a10.06,10.06,0,0,1-6-12.88,10.59,10.59,0,0,1,.75-1.6l-23.36-27.05,18.42-2.39,19.36,26a10.11,10.11,0,0,1-9.14,17.88Z"/><path class="cls-8" d="M133.9,203.89a10.05,10.05,0,0,1,.94-14.19,9.93,9.93,0,0,1,1.43-1l-7.43-35,17.29,6.78,4.4,32.15a10.11,10.11,0,0,1-16.63,11.26Z"/><polygon class="cls-8" points="217.57 386.06 229.83 386.06 235.66 338.77 217.57 338.77 217.57 386.06"/><path class="cls-1" d="M214.44,382.06h24.15A15.39,15.39,0,0,1,254,397.44h0v.5H214.44Z"/><polygon class="cls-8" points="157.57 386.06 169.83 386.06 175.66 338.77 157.57 338.77 157.57 386.06"/><path class="cls-1" d="M154.44,382.06h24.15A15.39,15.39,0,0,1,194,397.44h0v.5H154.44Z"/><path class="cls-1" d="M216.11,361.37a4.53,4.53,0,0,1-4.47-4L199.11,254.08a1.5,1.5,0,0,0-3-.11L176.21,355.38a4.53,4.53,0,0,1-4.42,3.64H157.16a4.51,4.51,0,0,1-4.5-4.5v-.09l2.93-156.2.24-.14c21.35-12.71,46.51-13.55,76.93-2.54l.31.11L238,356a4.5,4.5,0,0,1-4.31,4.63l-17.36.7Z"/><circle class="cls-8" cx="199.41" cy="30.45" r="24.56"/><path class="cls-7" d="M256.25,178.92a4.52,4.52,0,0,1-3.53-1l-25.18-21.13a46.35,46.35,0,0,1-16-28.44l-5.67-36.6a14.5,14.5,0,0,1,27-10.56l0,0,12,57.51,19.14,26a4.5,4.5,0,0,1,.11,5.16L259.36,177a4.52,4.52,0,0,1-3.11,1.95Z"/><path class="cls-7" d="M134,180.79a4.48,4.48,0,0,1-2-3.09l-4.94-32.5a46.38,46.38,0,0,1,6.76-31.94L153.78,82A14.5,14.5,0,1,1,181,92v0l-29,51.09-2.79,32.13a4.52,4.52,0,0,1-3.33,4l-8.25,2.19a4.49,4.49,0,0,1-2.69-.11A4.86,4.86,0,0,1,134,180.79Z"/><path class="cls-7" d="M226.27,74.07a41.81,41.81,0,0,0-33.53-13.56l-1.23.09h0a41.72,41.72,0,0,0-30.16,16.64,42.38,42.38,0,0,0-7.53,34.15,132.29,132.29,0,0,1-3.49,67.87l-6.59,20.46a4.49,4.49,0,0,0,2.9,5.66,4.41,4.41,0,0,0,1.14.21l33.69,1.82,8.62-14.89v15.35l40.94,2.2h.24a4.51,4.51,0,0,0,4.5-4.5c0-.12,0-.24,0-.36l-4.62-57.39,5.8-39A42.1,42.1,0,0,0,226.27,74.07Z"/><path class="cls-1" d="M182.34,53.9c2.27,1.31,11.26,2.18,11.9-.37v-.05c.45-1.87.08-3.81-.05-5.73s.06-4,1.36-5.42c2.43-2.62,6.75-1.23,10.26-1.89a8.66,8.66,0,0,0,6.74-9.25c-.05-.4-.13-.8-.21-1.2a6.66,6.66,0,0,1,5.1-7.94,6.56,6.56,0,0,1,1.82-.14c3.55.2,7.38,1.28,10.32-1.35,2.27-2,2.82-7.32,1.82-10.2C229.74,5.52,219,3,214.31,1.6a40.59,40.59,0,0,0-34.43,5.65c-3,2.08-5.73,4.71-7,8.1s-.65,7.68,2.19,9.92a18.36,18.36,0,0,0-4.24,17.81C172.24,47.61,179,52,182.34,53.9Z"/><path class="cls-3" d="M791,398.62H1a1,1,0,0,1,0-2H791a1,1,0,0,1,0,2Z"/><path class="cls-9" d="M714.71,218.91h0a11.36,11.36,0,1,1,10.41-12.23A11.35,11.35,0,0,1,714.71,218.91Zm-.14-1.74h0a9.61,9.61,0,1,0-10.35-8.81,9.61,9.61,0,0,0,10.35,8.81Z"/><circle class="cls-9" cx="753.82" cy="182.78" r="6.99"/><circle class="cls-9" cx="788.18" cy="160.82" r="3.67"/><path class="cls-9" d="M401.34,137a11.36,11.36,0,1,1-3.45,15.69h0A11.37,11.37,0,0,1,401.34,137Zm11.29,17.67a9.61,9.61,0,1,0-13.27-2.93h0a9.62,9.62,0,0,0,13.27,2.93Z"/><circle class="cls-9" cx="403.03" cy="99.71" r="6.99"/><circle class="cls-9" cx="399.76" cy="59.07" r="3.67"/><path class="cls-9" d="M92.07,265.7a11.36,11.36,0,1,1,15.78,3h0A11.37,11.37,0,0,1,92.07,265.7Zm17.33-11.8a9.61,9.61,0,1,0-2.53,13.35h0a9.62,9.62,0,0,0,2.53-13.35Z"/><circle class="cls-9" cx="54.73" cy="265.08" r="6.99"/><circle class="cls-9" cx="14.2" cy="269.53" r="3.67"/></svg>